<?xml version="1.0" encoding="UTF-8" standalone="no"?>
<!-- Created with Inkscape (http://www.inkscape.org/) -->

<svg
   width="64pt"
   height="64pt"
   viewBox="0 0 22.577778 22.577778"
   version="1.1"
   id="svg831"
   inkscape:version="1.1.1 (3bf5ae0d25, 2021-09-20)"
   sodipodi:docname="TEMPLATE.svg"
   inkscape:export-filename="C:\Users\User\Desktop\CARLOS PROJECT\4. APRIL 2\Export\Solid\30 - Screw.png"
   inkscape:export-xdpi="576"
   inkscape:export-ydpi="576"
   xmlns:inkscape="http://www.inkscape.org/namespaces/inkscape"
   xmlns:sodipodi="http://sodipodi.sourceforge.net/DTD/sodipodi-0.dtd"
   xmlns="http://www.w3.org/2000/svg"
   xmlns:svg="http://www.w3.org/2000/svg"
   xmlns:rdf="http://www.w3.org/1999/02/22-rdf-syntax-ns#"
   xmlns:cc="http://creativecommons.org/ns#"
   xmlns:dc="http://purl.org/dc/elements/1.1/">
  <defs
     id="defs825">
    <pattern
       id="EMFhbasepattern"
       patternUnits="userSpaceOnUse"
       width="6"
       height="6"
       x="0"
       y="0" />
    <pattern
       id="EMFhbasepattern-9"
       patternUnits="userSpaceOnUse"
       width="6"
       height="6"
       x="0"
       y="0" />
    <pattern
       id="EMFhbasepattern-0"
       patternUnits="userSpaceOnUse"
       width="6"
       height="6"
       x="0"
       y="0" />
    <pattern
       id="EMFhbasepattern-7"
       patternUnits="userSpaceOnUse"
       width="6"
       height="6"
       x="0"
       y="0" />
    <pattern
       id="EMFhbasepattern-2"
       patternUnits="userSpaceOnUse"
       width="6"
       height="6"
       x="0"
       y="0" />
    <pattern
       id="EMFhbasepattern-98"
       patternUnits="userSpaceOnUse"
       width="6"
       height="6"
       x="0"
       y="0" />
    <pattern
       id="EMFhbasepattern-6"
       patternUnits="userSpaceOnUse"
       width="6"
       height="6"
       x="0"
       y="0" />
    <pattern
       id="EMFhbasepattern-01"
       patternUnits="userSpaceOnUse"
       width="6"
       height="6"
       x="0"
       y="0" />
    <pattern
       id="EMFhbasepattern-07"
       patternUnits="userSpaceOnUse"
       width="6"
       height="6"
       x="0"
       y="0" />
    <pattern
       id="EMFhbasepattern-8"
       patternUnits="userSpaceOnUse"
       width="6"
       height="6"
       x="0"
       y="0" />
    <pattern
       id="EMFhbasepattern-4"
       patternUnits="userSpaceOnUse"
       width="6"
       height="6"
       x="0"
       y="0" />
    <pattern
       id="EMFhbasepattern-40"
       patternUnits="userSpaceOnUse"
       width="6"
       height="6"
       x="0"
       y="0" />
    <pattern
       id="EMFhbasepattern-08"
       patternUnits="userSpaceOnUse"
       width="6"
       height="6"
       x="0"
       y="0" />
    <pattern
       id="EMFhbasepattern-04"
       patternUnits="userSpaceOnUse"
       width="6"
       height="6"
       x="0"
       y="0" />
    <pattern
       id="EMFhbasepattern-014"
       patternUnits="userSpaceOnUse"
       width="6"
       height="6"
       x="0"
       y="0" />
    <pattern
       id="EMFhbasepattern-27"
       patternUnits="userSpaceOnUse"
       width="6"
       height="6"
       x="0"
       y="0" />
    <pattern
       id="EMFhbasepattern-09"
       patternUnits="userSpaceOnUse"
       width="6"
       height="6"
       x="0"
       y="0" />
    <pattern
       id="EMFhbasepattern-5"
       patternUnits="userSpaceOnUse"
       width="6"
       height="6"
       x="0"
       y="0" />
    <pattern
       id="EMFhbasepattern-018"
       patternUnits="userSpaceOnUse"
       width="6"
       height="6"
       x="0"
       y="0" />
  </defs>
  <sodipodi:namedview
     id="base"
     pagecolor="#ffffff"
     bordercolor="#666666"
     borderopacity="1.0"
     inkscape:pageopacity="0.0"
     inkscape:pageshadow="2"
     inkscape:zoom="4.5878907"
     inkscape:cx="33.130693"
     inkscape:cy="66.806299"
     inkscape:document-units="pt"
     inkscape:current-layer="layer1"
     showgrid="false"
     units="pt"
     inkscape:window-width="1920"
     inkscape:window-height="1001"
     inkscape:window-x="-9"
     inkscape:window-y="-9"
     inkscape:window-maximized="1"
     inkscape:pagecheckerboard="true"
     inkscape:showpageshadow="false"
     inkscape:object-paths="true"
     inkscape:snap-intersection-paths="true"
     inkscape:snap-smooth-nodes="true"
     inkscape:snap-midpoints="true"
     showguides="true"
     inkscape:snap-bbox="true"
     inkscape:bbox-nodes="true"
     inkscape:snap-nodes="false"
     inkscape:snap-global="true">
    <inkscape:grid
       type="xygrid"
       id="grid1378" />
    <sodipodi:guide
       position="0.97013831,21.607643"
       orientation="78.000048,0"
       id="guide1380"
       inkscape:locked="false" />
    <sodipodi:guide
       position="0.97013831,0.97013129"
       orientation="0,78.000005"
       id="guide1382"
       inkscape:locked="false" />
    <sodipodi:guide
       position="21.607639,0.97013129"
       orientation="-78.000048,0"
       id="guide1384"
       inkscape:locked="false" />
    <sodipodi:guide
       position="21.607639,21.607643"
       orientation="0,-78.000005"
       id="guide1386"
       inkscape:locked="false" />
  </sodipodi:namedview>
  <metadata
     id="metadata828">
    <rdf:RDF>
      <cc:Work
         rdf:about="">
        <dc:format>image/svg+xml</dc:format>
        <dc:type
           rdf:resource="http://purl.org/dc/dcmitype/StillImage" />
      </cc:Work>
    </rdf:RDF>
  </metadata>
  <g
     inkscape:label="Icon"
     inkscape:groupmode="layer"
     id="layer1"
     transform="translate(0,-274.42223)">
    <g
       id="g19660"
       style="display:inline;stroke-width:0.794878"
       transform="matrix(1.2580546,0,0,1.2580546,77.377298,-38.905093)">
      <path
         id="path175721"
         style="color:#000000;fill:#fca311;stroke-width:3.00427;stroke-linecap:round;stroke-linejoin:round;-inkscape-stroke:none"
         d="m -223.07422,-114.28711 c -1.63941,0 -2.98047,1.36435 -2.98047,3.00391 v 9.99609 a 1.0001006,1.0001006 0 0 0 0.9961,1.00391 h 3.96289 a 1.0001006,1.0001006 0 0 0 0.99804,-1.00391 v -9.99609 c 0,-1.63956 -1.33715,-3.00391 -2.97656,-3.00391 z m 12.0625,0 c -1.63333,0 -2.95312,1.37036 -2.95312,3.00391 v 9.99609 a 1.0001006,1.0001006 0 0 0 0.99804,1.00391 h 3.91992 a 1.0001006,1.0001006 0 0 0 0.9961,-1.00391 v -9.99609 c 0,-1.63355 -1.3276,-3.00387 -2.96094,-3.00391 z"
         transform="matrix(0.26458334,0,0,0.26458334,0,280.06666)" />
      <path
         style="color:#000000;fill:#f9f9f9;stroke-width:0.794878;stroke-linecap:round;stroke-linejoin:round;-inkscape-stroke:none"
         d="m -51.738281,258.03125 c -0.435244,0 -0.794925,0.35772 -0.794922,0.79297 v 6.61523 c -3e-6,0.43525 0.359678,0.79297 0.794922,0.79297 H -45.125 c 0.435244,0 0.794925,-0.35772 0.794922,-0.79297 v -6.61523 c 3e-6,-0.43525 -0.359678,-0.79297 -0.794922,-0.79297 z"
         id="path176497" />
      <path
         id="path176692"
         style="fill:#cccccc;fill-opacity:1;stroke:none;stroke-width:1.58976;stroke-linecap:round;stroke-linejoin:round;stop-color:#000000"
         d="m -183.04883,-77.289062 c -5.2585,0 -9.49999,4.241505 -9.5,9.5 0,5.258532 4.24149,9.5 9.5,9.5 5.25605,0 9.49622,-4.237095 9.5,-9.492188 -0.0828,-5.143899 -4.30101,-9.507812 -9.5,-9.507812 z"
         transform="matrix(0.26458334,0,0,0.26458334,0,280.06666)" />
      <path
         id="path176788"
         style="color:#000000;fill:#ca7d02;fill-opacity:1;stroke-width:3.00427;stroke-linecap:round;stroke-linejoin:round;-inkscape-stroke:none"
         d="m -226.05469,-104.25586 v 2.96875 a 1.0001006,1.0001006 0 0 0 0.9961,1.00391 h 3.96289 a 1.0001006,1.0001006 0 0 0 0.99804,-1.00391 v -2.96875 z m 12.08985,0 v 2.96875 a 1.0001006,1.0001006 0 0 0 0.99804,1.00391 h 3.91992 a 1.0001006,1.0001006 0 0 0 0.9961,-1.00391 v -2.96875 z"
         transform="matrix(0.26458334,0,0,0.26458334,0,280.06666)" />
      <path
         style="color:#000000;fill:#d0e2ee;stroke-width:0.794878;stroke-linecap:round;stroke-linejoin:round;-inkscape-stroke:none"
         d="m -59.869141,254.59766 a 0.26460996,0.26460996 0 0 0 -0.265625,0.26562 v 1.58008 c -1e-5,1.37955 1.227376,2.47656 2.705079,2.47656 1.477707,0 2.707035,-1.09701 2.707031,-2.47656 v -1.58008 a 0.26460996,0.26460996 0 0 0 -0.265625,-0.26562 z"
         id="path176297" />
      <path
         id="path185985"
         style="color:#000000;fill:#a8c2e1;fill-opacity:1;stroke-width:0.794878;stroke-linecap:round;stroke-linejoin:round;-inkscape-stroke:none"
         d="m -59.869214,254.59741 a 0.26460996,0.26460996 0 0 0 -0.265618,0.26562 v 0.79272 h 4.617289 a 0.26460996,0.26460996 0 0 1 0.265617,0.26613 v 1.57975 c 0,0.16139 -0.01701,0.31894 -0.04909,0.47129 0.361506,-0.41954 0.57826,-0.94979 0.57826,-1.52962 v -1.58027 a 0.26460996,0.26460996 0 0 0 -0.265618,-0.26562 z" />
      <path
         style="color:#000000;fill:#d0e2ee;stroke-width:0.794878;stroke-linecap:round;stroke-linejoin:round;-inkscape-stroke:none"
         d="m -59.869141,253.01172 c -0.461014,0 -0.865234,0.34849 -0.865234,0.80664 v 0.49414 c 0,0.45815 0.40422,0.80664 0.865234,0.80664 h 4.88086 c 0.461014,0 0.865234,-0.34849 0.865234,-0.80664 v -0.49414 c 0,-0.45815 -0.40422,-0.80664 -0.865234,-0.80664 z"
         id="path176105" />
      <path
         id="path181216"
         style="color:#000000;fill:#a8c2e1;fill-opacity:1;stroke-width:0.794878;stroke-linecap:round;stroke-linejoin:round;-inkscape-stroke:none"
         d="m -59.869214,253.01198 c -0.381487,0 -0.723593,0.2384 -0.830443,0.58033 0.09489,-0.0332 0.196432,-0.0512 0.301276,-0.0512 h 4.880838 c 0.461015,0 0.865581,0.348 0.865581,0.80615 v 0.49454 c 0,0.0791 -0.01286,0.15453 -0.03514,0.22583 0.322498,-0.11284 0.564309,-0.40092 0.564309,-0.75499 v -0.49455 c 0,-0.45815 -0.404566,-0.80615 -0.865582,-0.80615 z" />
      <path
         id="path190878"
         style="color:#000000;fill:#ececec;fill-opacity:1;stroke-width:0.794878;stroke-linecap:round;stroke-linejoin:round;-inkscape-stroke:none"
         d="m -51.738447,258.03131 c -0.355676,0 -0.660453,0.23893 -0.760158,0.56379 0.07336,-0.0226 0.150709,-0.0346 0.230992,-0.0346 h 6.613551 c 0.435245,0 0.794787,0.35747 0.794782,0.79272 v 6.61561 c 3e-6,0.0796 -0.01232,0.15625 -0.03462,0.22893 0.324559,-0.0997 0.56379,-0.40297 0.563788,-0.75809 v -6.61562 c 5e-6,-0.43525 -0.359537,-0.79272 -0.794782,-0.79272 z" />
      <path
         id="path192367"
         style="fill:#a6a6a6;fill-opacity:1;stroke:none;stroke-width:0.420623;stroke-linecap:round;stroke-linejoin:round;stop-color:#000000"
         d="m -48.431671,259.58132 c -0.831128,0 -1.565915,0.43645 -2.023131,1.05552 0.417256,-0.30817 0.933781,-0.49041 1.493964,-0.49041 1.375569,0 2.491632,1.15462 2.513542,2.51561 -5.29e-4,0.5593 -0.18221,1.0752 -0.489892,1.4919 0.618408,-0.45685 1.068776,-1.19089 1.069371,-2.02107 -0.02191,-1.36099 -1.188285,-2.55155 -2.563854,-2.55155 z"
         sodipodi:nodetypes="scscccs" />
      <path
         id="path18241"
         style="color:#000000;display:inline;fill:#000000;stroke-width:0.794878;stroke-linecap:round;stroke-linejoin:round;-inkscape-stroke:none"
         d="m -59.021722,249.82819 c -0.433761,0 -0.788583,0.36099 -0.788583,0.79479 v 2.38848 h -0.05891 c -0.461016,0 -0.865066,0.34852 -0.865066,0.80667 v 0.49455 c 0,0.36696 0.259321,0.66334 0.599448,0.76687 v 1.36375 c -1.1e-5,1.29662 1.084437,2.34377 2.441712,2.46496 v 5.60328 c 0,0.94759 0.772721,1.72082 1.720308,1.72082 h 1.189591 c 0.947586,0 1.720826,-0.77323 1.720826,-1.72082 v -13.62501 c 0,-0.29539 0.23378,-0.52917 0.529166,-0.52917 0.295387,0 0.529167,0.23378 0.529167,0.52917 v 5.55677 c -2e-6,0.58137 0.477483,1.05885 1.058849,1.05885 0.581367,0 1.058334,-0.47748 1.058334,-1.05885 v -5.55677 c 0,-0.29539 0.234299,-0.52917 0.529682,-0.52917 0.295387,0 0.529167,0.23378 0.529167,0.52917 v 5.55677 c 0,0.58137 0.47697,1.05885 1.058333,1.05885 h 3.173969 c 0.146933,5.8e-4 0.266189,-0.11869 0.265615,-0.26562 -2.65e-4,-0.14633 -0.11929,-0.26464 -0.265615,-0.26407 h -3.173969 c -0.295383,0 -0.529166,-0.23377 -0.529166,-0.52916 v -5.55677 c 0,-0.58137 -0.476967,-1.05834 -1.058334,-1.05834 -0.581363,0 -1.058849,0.47697 -1.058849,1.05834 v 5.55677 c 0,0.29539 -0.23378,0.52916 -0.529167,0.52916 -0.295386,0 -0.529166,-0.23377 -0.529166,-0.52916 v -5.55677 c 0,-0.58137 -0.477486,-1.05834 -1.05885,-1.05834 -0.581366,0 -1.056782,0.47697 -1.056782,1.05834 v 13.62501 c 0,0.66161 -0.531604,1.19167 -1.19321,1.19166 h -1.189591 c -0.661606,0 -1.191141,-0.53005 -1.191141,-1.19166 v -5.6038 c 1.356503,-0.12208 2.441197,-1.16849 2.441194,-2.46444 v -1.36375 c 0.340212,-0.10348 0.599964,-0.39985 0.599964,-0.76687 v -0.49455 c 0,-0.45815 -0.404566,-0.80667 -0.865582,-0.80667 h -0.05839 v -2.38848 c 0,-0.43221 -0.351261,-0.79477 -0.783416,-0.79479 -0.432152,0 -0.781346,0.36258 -0.781346,0.79479 v 2.38848 h -1.622642 v -2.38848 c 0,-0.4338 -0.353788,-0.79479 -0.787548,-0.79479 z m 0,0.52917 c 0.144899,0 0.257865,0.11494 0.257865,0.26562 v 2.38073 h -0.517281 v -2.38073 c 0,-0.15068 0.114517,-0.26562 0.259416,-0.26562 z m 3.191536,0 c 0.140013,0 0.254249,0.11335 0.254249,0.26562 v 2.38073 h -0.505912 v -2.38073 c 0,-0.15227 0.111651,-0.26562 0.251663,-0.26562 z m -4.039028,3.18172 h 4.880837 c 0.201838,0 0.335897,0.13646 0.335897,0.27905 v 0.49455 c 0,0.14259 -0.134059,0.27905 -0.335897,0.27905 h -1.220597 c -0.14532,5.5e-4 -0.262982,0.11823 -0.263549,0.26355 2.65e-4,0.14552 0.118028,0.2635 0.263549,0.26407 h 0.957048 v 1.32395 c 3e-6,1.06399 -0.959122,1.94716 -2.177645,1.94716 -1.21852,0 -2.176103,-0.88317 -2.176095,-1.94716 v -1.32395 h 1.488282 c 0.145722,-3e-4 0.263784,-0.11835 0.264067,-0.26407 -5.29e-4,-0.14552 -0.118546,-0.26327 -0.264067,-0.26355 h -1.75183 c -0.201838,0 -0.3359,-0.13646 -0.3359,-0.27905 v -0.49455 c 0,-0.14259 0.134062,-0.27905 0.3359,-0.27905 z m 2.498037,1.6738 -0.777214,0.91209 c -0.145372,0.17163 -0.02389,0.43487 0.201023,0.43563 h 0.465087 l -0.406178,0.47439 c -0.09506,0.11102 -0.0821,0.27808 0.02894,0.3731 0.111014,0.0951 0.278075,0.0821 0.373105,-0.0289 l 0.777214,-0.91054 c 0.147719,-0.17171 0.02548,-0.43755 -0.201023,-0.43719 h -0.463021 l 0.404628,-0.4749 c 0.09493,-0.11116 0.08174,-0.27823 -0.02946,-0.37311 -0.134554,-0.10555 -0.28297,-0.066 -0.373105,0.0295 z m 5.63273,2.81843 c -0.435242,0 -0.794784,0.35747 -0.794782,0.79272 v 6.61562 c -2e-6,0.43525 0.35954,0.79271 0.794782,0.79271 h 6.613552 c 0.435245,0 0.794787,-0.35746 0.794782,-0.79271 v -6.61562 c 5e-6,-0.43525 -0.359537,-0.79272 -0.794782,-0.79272 z m 0,0.52917 h 6.613552 c 0.149259,0 0.265618,0.11429 0.265615,0.26355 v 6.61562 c 3e-6,0.14926 -0.116356,0.26356 -0.265615,0.26355 h -6.613552 c -0.149259,1e-5 -0.265617,-0.11429 -0.265615,-0.26355 v -6.61562 c -2e-6,-0.14926 0.116356,-0.26355 0.265615,-0.26355 z m 3.306776,0.52762 c -1.677294,0 -3.042703,1.36541 -3.042708,3.0427 0,1.6773 1.365411,3.04323 3.042708,3.04323 1.6773,0 3.043232,-1.36593 3.043225,-3.04323 0,-0.83865 -0.34058,-1.59994 -0.8909,-2.15025 -0.103439,-0.10399 -0.271733,-0.10399 -0.375171,0 -0.102614,0.1032 -0.102614,0.2699 0,0.3731 0.455154,0.45514 0.736385,1.0815 0.736388,1.77715 5e-6,1.39132 -1.122225,2.51355 -2.513542,2.51355 -1.391314,0 -2.513542,-1.12223 -2.513542,-2.51355 3e-6,-1.39131 1.122231,-2.51354 2.513542,-2.51354 0.347845,0 0.678265,0.0702 0.978752,0.19741 0.134281,0.0575 0.289722,-0.005 0.347266,-0.13901 0.05762,-0.13485 -0.0054,-0.29084 -0.14056,-0.34779 -0.364247,-0.1541 -0.766151,-0.23978 -1.185458,-0.23977 z m -2.77709,0.002 c -0.146127,-5.9e-4 -0.265049,0.11742 -0.265618,0.26355 -5.29e-4,0.14693 0.118684,0.26619 0.265618,0.26561 0.146327,-2.9e-4 0.264636,-0.11929 0.264064,-0.26561 -5.29e-4,-0.14552 -0.118544,-0.26327 -0.264064,-0.26355 z m 5.55625,0 c -0.146127,-5.9e-4 -0.265049,0.11742 -0.265618,0.26355 -5.29e-4,0.14693 0.118684,0.26619 0.265618,0.26561 0.146328,-2.9e-4 0.264636,-0.11929 0.264065,-0.26561 -5.3e-4,-0.14552 -0.118544,-0.26327 -0.264065,-0.26355 z m -3.96875,2.57813 c -0.146934,-5.8e-4 -0.266192,0.11869 -0.265618,0.26562 v 0.39688 c 5.29e-4,0.14612 0.119491,0.26412 0.265618,0.26355 0.145521,-3e-4 0.263496,-0.11804 0.264064,-0.26355 v -0.39688 c 5.3e-4,-0.14633 -0.117737,-0.26533 -0.264064,-0.26562 z m 2.38125,0 c -0.146934,-5.8e-4 -0.266192,0.11869 -0.265618,0.26562 v 0.39688 c 5.29e-4,0.14612 0.119491,0.26412 0.265618,0.26355 0.145319,-5.6e-4 0.262982,-0.11824 0.263549,-0.26355 v -0.39688 c 5.29e-4,-0.14613 -0.117425,-0.26505 -0.263549,-0.26562 z m -1.190109,0.19896 c -0.146127,-5.8e-4 -0.265049,0.11742 -0.265618,0.26355 -5.29e-4,0.14693 0.118684,0.26619 0.265618,0.26561 0.146126,-5.8e-4 0.26412,-0.11949 0.263548,-0.26561 -5.29e-4,-0.14532 -0.118229,-0.26298 -0.263548,-0.26355 z m -2.778641,2.77812 c -0.146127,-5.8e-4 -0.265049,0.11743 -0.265618,0.26355 -5.29e-4,0.14694 0.118684,0.2662 0.265618,0.26562 0.146327,-2.9e-4 0.264636,-0.11929 0.264064,-0.26562 -5.29e-4,-0.14552 -0.118544,-0.26326 -0.264064,-0.26355 z m 5.55625,0 c -0.146127,-5.8e-4 -0.265049,0.11743 -0.265618,0.26355 -5.29e-4,0.14694 0.118684,0.2662 0.265618,0.26562 0.146328,-2.9e-4 0.264636,-0.11929 0.264065,-0.26562 -5.3e-4,-0.14552 -0.118544,-0.26326 -0.264065,-0.26355 z"
         sodipodi:nodetypes="sscssscscssssssscssssssscccsssssssssssscsscscssscsssccssssccssssccsssssssccccsssccccsssscccccccccccccsccssccssssccccccssssscccsssscccscscsccscsccccccccsccsccsssssscscsccscsc" />
    </g>
  </g>
</svg>
