<?xml version="1.0" ?><!DOCTYPE svg  PUBLIC '-//W3C//DTD SVG 1.0//EN'  'http://www.w3.org/TR/2001/REC-SVG-20010904/DTD/svg10.dtd'><svg enable-background="new 0 0 512 512" id="Layer_1" version="1.0" viewBox="0 0 512 512" xml:space="preserve" xmlns="http://www.w3.org/2000/svg" xmlns:xlink="http://www.w3.org/1999/xlink"><g><g><g><path d="M339.3,259.6v204.6H118.9V259.6h24.4v173.1c0,3.9,3.2,7.1,7.1,7.1h157.4c3.9,0,7.1-3.2,7.1-7.1V259.6     H339.3z" fill="#998675"/><g><path d="M331.8,259.6c0,49.1,0,98.3,0,147.4c0,19.1,0,38.2,0,57.2c2.5-2.5,5-5,7.5-7.5c-48,0-96.1,0-144.1,0      c-25.4,0-50.8,0-76.2,0c2.5,2.5,5,5,7.5,7.5c0-49.1,0-98.3,0-147.4c0-19.1,0-38.2,0-57.2c-2.5,2.5-5,5-7.5,7.5      c8.1,0,16.2,0,24.4,0c-2.5-2.5-5-5-7.5-7.5c0,49.9,0,99.8,0,149.7c0,7.6,0,15.1,0,22.7c0,8.8,6.2,14.6,14.6,15.4      c1.6,0.1,3.3,0,4.9,0c26.8,0,53.5,0,80.3,0c23.7,0,47.4,0,71.1,0c7.4,0,13.4-4.1,15.4-11.3c0.6-2.2,0.4-4.8,0.4-7.1      c0-9.8,0-19.6,0-29.5c0-46.6,0-93.2,0-139.9c-2.5,2.5-5,5-7.5,7.5c8.1,0,16.2,0,24.4,0c9.7,0,9.7-15,0-15c-8.1,0-16.2,0-24.4,0      c-4.1,0-7.5,3.4-7.5,7.5c0,49.9,0,99.8,0,149.7c0,7.6,0,15.1,0,22.7c0,1,0.7,0.4-0.8,0.4c-3,0-6.1,0-9.1,0      c-28.9,0-57.8,0-86.7,0c-20.1,0-40.3,0-60.4,0c0.5,0,0.4,0.7,0.4-0.2c0-1,0-1.9,0-2.9c0-3.8,0-7.6,0-11.4c0-13.1,0-26.3,0-39.4      c0-39.6,0-79.2,0-118.8c0-4.1-3.4-7.5-7.5-7.5c-8.1,0-16.2,0-24.4,0c-4.1,0-7.5,3.4-7.5,7.5c0,49.1,0,98.3,0,147.4      c0,19.1,0,38.2,0,57.2c0,4.1,3.4,7.5,7.5,7.5c48,0,96.1,0,144.1,0c25.4,0,50.8,0,76.2,0c4.1,0,7.5-3.4,7.5-7.5      c0-49.1,0-98.3,0-147.4c0-19.1,0-38.2,0-57.2C346.8,249.9,331.8,249.9,331.8,259.6z"/></g></g><g><rect fill="#998675" height="63" width="31.5" x="307.8" y="54.9"/><g><path d="M331.8,54.9c0,21,0,42,0,63c2.5-2.5,5-5,7.5-7.5c-10.5,0-21,0-31.5,0c2.5,2.5,5,5,7.5,7.5c0-21,0-42,0-63      c-2.5,2.5-5,5-7.5,7.5c10.5,0,21,0,31.5,0c9.7,0,9.7-15,0-15c-10.5,0-21,0-31.5,0c-4.1,0-7.5,3.4-7.5,7.5c0,21,0,42,0,63      c0,4.1,3.4,7.5,7.5,7.5c10.5,0,21,0,31.5,0c4.1,0,7.5-3.4,7.5-7.5c0-21,0-42,0-63C346.8,45.3,331.8,45.3,331.8,54.9z"/></g></g><g><g><path d="M315.3,117.9C315.3,117.9,315.3,117.9,315.3,117.9c0-4.1-3.4-7.5-7.5-7.5s-7.5,3.4-7.5,7.5c0,0,0,0,0,0      c0,4.1,3.4,7.5,7.5,7.5S315.3,122,315.3,117.9L315.3,117.9z"/></g></g><g><g><path d="M157.9,117.9C157.9,117.9,157.9,117.9,157.9,117.9c0-4.1-3.4-7.5-7.5-7.5c-4.1,0-7.5,3.4-7.5,7.5c0,0,0,0,0,0      c0,4.1,3.4,7.5,7.5,7.5C154.5,125.4,157.9,122,157.9,117.9L157.9,117.9z"/></g></g><g><rect fill="#998675" height="63" width="31.5" x="118.9" y="54.9"/><g><path d="M142.9,54.9c0,21,0,42,0,63c2.5-2.5,5-5,7.5-7.5c-10.5,0-21,0-31.5,0c2.5,2.5,5,5,7.5,7.5c0-21,0-42,0-63      c-2.5,2.5-5,5-7.5,7.5c10.5,0,21,0,31.5,0c9.7,0,9.7-15,0-15c-10.5,0-21,0-31.5,0c-4.1,0-7.5,3.4-7.5,7.5c0,21,0,42,0,63      c0,4.1,3.4,7.5,7.5,7.5c10.5,0,21,0,31.5,0c4.1,0,7.5-3.4,7.5-7.5c0-21,0-42,0-63C157.9,45.3,142.9,45.3,142.9,54.9z"/></g></g><g><g><path d="M157.9,117.9C157.9,117.9,157.9,117.9,157.9,117.9c0-4.1-3.4-7.5-7.5-7.5c-4.1,0-7.5,3.4-7.5,7.5c0,0,0,0,0,0      c0,4.1,3.4,7.5,7.5,7.5C154.5,125.4,157.9,122,157.9,117.9L157.9,117.9z"/></g></g><g><path d="M276.3,375.5v20.1c0,3.1-2.5,5.7-5.7,5.7h-35.8c-3.2,0-5.7-2.6-5.7-5.7v-20.1c0-3.2,2.5-5.7,5.7-5.7h35.8     C273.8,369.7,276.3,372.3,276.3,375.5z" fill="#69BD45"/><g><path d="M268.8,375.5c0,5.1,0,10.1,0,15.2c0,1.2,0,2.3,0,3.5c0,2.8-0.3-0.2,1.8-0.4c-1.2,0.1-2.6,0-3.9,0c-6.6,0-13.3,0-19.9,0      c-2.9,0-5.9,0-8.8,0c-0.8,0-1.6,0-2.4,0c-2.1,0,0.7-0.2,0.9,1.8c-0.6-4.9,0-10.2,0-15.2c0-1.2,0-2.3,0-3.5      c0-2.8,0.3,0.1-1.8,0.4c1.2-0.1,2.6,0,3.9,0c6.6,0,13.3,0,19.9,0c2.9,0,5.9,0,8.8,0c0.8,0,1.6,0,2.4,0      C271.8,377.2,269.1,377.4,268.8,375.5c0.5,4.1,3.1,7.5,7.5,7.5c3.7,0,8-3.4,7.5-7.5c-0.8-6.8-4.7-12.2-11.9-13.1      c-1.9-0.2-3.9-0.2-5.8-0.2c-7.6,0-15.3,0-22.9,0c-6.9,0-15-1-19.3,5.9c-3.8,5.9-2.3,15-2.3,21.6c0,2.4-0.1,4.7,0.2,7.1      c0.8,6.6,6.2,11.9,13.1,11.9c5.6,0,11.3,0,16.9,0c6.2,0,12.4,0,18.6,0c5.2,0,9.2-2.7,11.9-6.9c1.9-3,1.6-7,1.6-10.4      c0-5.3,0-10.7,0-16C283.8,365.8,268.8,365.8,268.8,375.5z"/></g></g><g><path d="M118.9,117.9v141.7h220.4V117.9H118.9z M307.8,222.4c0,3.1-2.5,5.7-5.7,5.7h-146c-3.1,0-5.7-2.6-5.7-5.7     v-67.3c0-3.1,2.6-5.7,5.7-5.7h146c3.2,0,5.7,2.6,5.7,5.7V222.4z" fill="#EC2127"/><g><path d="M300.3,222.4c0.2-2,3.1-1.8,0.7-1.8c-1.3,0-2.5,0-3.8,0c-4.6,0-9.2,0-13.8,0c-14.6,0-29.3,0-43.9,0c-26.7,0-53.4,0-80,0      c-1,0-1.9,0-2.9,0c-1.8,0,1.2,2.6,1.2,1.5c0-4.4,0-8.8,0-13.1c0-15.2,0-30.4,0-45.6c0-2.1,0-4.2,0-6.3c0-3.4,0.4-0.1-1.8-0.1      c2,0,4,0,6.1,0c11.8,0,23.6,0,35.3,0c30.2,0,60.3,0,90.5,0c3.8,0,7.7,0,11.5,0c0.8,0,1.5,0,2.3,0c0,0-1.6-3.1-1.6-0.9      c0,13.1,0,26.1,0,39.2C300.3,204.3,300.3,213.3,300.3,222.4c0,9.7,15,9.7,15,0c0-22.4,0-44.8,0-67.3c0-14.1-14-13.2-23.7-13.2      c-13.1,0-26.2,0-39.3,0c-29.1,0-58.1,0-87.2,0c-2.8,0-5.6,0-8.4,0c-7.6,0-13.8,5.8-13.8,13.5c0,12.3,0,24.6,0,36.8      c0,7.3,0,14.6,0,22c0,4.1-0.5,8.8,0.8,12.7c3.8,10.7,16.2,8.7,25.2,8.7c30,0,59.9,0,89.9,0c11.4,0,22.9,0,34.3,0      c2.7,0,5.4,0,8.1,0c8.1,0,13.2-5.4,14.1-13.2c0.5-4.1-3.8-7.5-7.5-7.5C303.4,214.9,300.8,218.3,300.3,222.4z"/><path d="M111.4,117.9c0,46.7,0,93.4,0,140.2c0,0.5,0,1,0,1.5c0,4.1,3.4,7.5,7.5,7.5c48,0,96.1,0,144.1,0c25.4,0,50.8,0,76.2,0      c4.1,0,7.5-3.4,7.5-7.5c0-46.7,0-93.4,0-140.2c0-0.5,0-1,0-1.5c0-4.1-3.4-7.5-7.5-7.5c-48,0-96.1,0-144.1,0      c-25.4,0-50.8,0-76.2,0c-9.7,0-9.7,15,0,15c48,0,96.1,0,144.1,0c25.4,0,50.8,0,76.2,0c-2.5-2.5-5-5-7.5-7.5      c0,46.7,0,93.4,0,140.2c0,0.5,0,1,0,1.5c2.5-2.5,5-5,7.5-7.5c-48,0-96.1,0-144.1,0c-25.4,0-50.8,0-76.2,0c2.5,2.5,5,5,7.5,7.5      c0-46.7,0-93.4,0-140.2c0-0.5,0-1,0-1.5C126.4,108.2,111.4,108.2,111.4,117.9z"/></g></g><g><path d="M143.3,259.6v173.1c0,3.9,3.2,7.1,7.1,7.1h157.4c3.9,0,7.1-3.2,7.1-7.1V259.6H143.3z M276.3,395.5     c0,3.1-2.5,5.7-5.7,5.7h-35.8c-3.2,0-5.7-2.6-5.7-5.7v-20.1c0-3.2,2.5-5.7,5.7-5.7h35.8c3.2,0,5.7,2.6,5.7,5.7V395.5z" fill="#FBB03B"/><g><path d="M135.8,259.6c0,49.9,0,99.8,0,149.7c0,7.6,0,15.1,0,22.7c0,8.8,6.2,14.6,14.6,15.4c1.6,0.1,3.3,0,4.9,0      c26.8,0,53.5,0,80.3,0c23.7,0,47.4,0,71.1,0c7.4,0,13.4-4.1,15.4-11.3c0.6-2.2,0.4-4.8,0.4-7.1c0-9.8,0-19.6,0-29.5      c0-46.6,0-93.2,0-139.9c0-4.1-3.4-7.5-7.5-7.5c-49.8,0-99.7,0-149.5,0c-7.4,0-14.7,0-22.1,0c-9.7,0-9.7,15,0,15      c49.8,0,99.7,0,149.5,0c7.4,0,14.7,0,22.1,0c-2.5-2.5-5-5-7.5-7.5c0,49.9,0,99.8,0,149.7c0,7.6,0,15.1,0,22.7      c0,1,0.7,0.4-0.8,0.4c-3,0-6.1,0-9.1,0c-28.9,0-57.8,0-86.7,0c-20.1,0-40.3,0-60.4,0c0.5,0,0.4,0.7,0.4-0.2c0-1,0-1.9,0-2.9      c0-3.8,0-7.6,0-11.4c0-13.1,0-26.3,0-39.4c0-39.6,0-79.2,0-118.8C150.8,249.9,135.8,249.9,135.8,259.6z"/><path d="M268.8,395.5c0.2-1.9,2.9-1.8,1.2-1.8c-0.7,0-1.4,0-2.1,0c-2.8,0-5.6,0-8.4,0c-6.7,0-13.5,0-20.2,0c-1.5,0-3,0-4.5,0      c1.5,0,1.8,2.9,1.8,1.3c0-1.2,0-2.4,0-3.6c0-5.3,0-10.7,0-16c0,1.9-2.9,1.8-1.2,1.8c0.7,0,1.4,0,2.1,0c2.8,0,5.6,0,8.4,0      c6.7,0,13.5,0,20.2,0c1.5,0,3,0,4.5,0c-1.5,0-1.8-2.9-1.8-1.3c0,1.2,0,2.4,0,3.6C268.8,384.9,268.8,390.2,268.8,395.5      c0,9.7,15,9.7,15,0c0-6,0-12.1,0-18.1c0-8.8-5.3-15.2-14.4-15.2c-6.9,0-13.8,0-20.6,0c-3.4,0-6.7,0-10.1,0      c-2.2,0-5.1-0.3-7.2,0.4c-10.2,3.7-9.9,12.4-9.9,21.4c0,7.6-1.6,17.6,5.8,22.4c5.2,3.3,12.5,2.3,18.5,2.3c7.4,0,14.7,0,22.1,0      c8.6,0,14.8-4.1,15.9-13.2c0.5-4.1-3.8-7.5-7.5-7.5C271.9,388,269.3,391.5,268.8,395.5z"/></g></g><g><path d="M370.8,29.2v20.1c0,3.2-2.6,5.7-5.7,5.7H93.2c-3.2,0-5.7-2.5-5.7-5.7V29.2c0-3.1,2.5-5.7,5.7-5.7h271.9     C368.2,23.5,370.8,26,370.8,29.2z" fill="#544741"/><g><path d="M363.3,29.2c0,6,0,12.1,0,18.1c0,3.5-0.2,0.2,1.7,0.2c-0.5,0-0.9,0-1.4,0c-6.2,0-12.4,0-18.6,0c-26.7,0-53.5,0-80.2,0      c-54.7,0-109.5,0-164.2,0c-2.1,0-4.2,0-6.3,0c-0.3,0-0.7,0-1,0c-0.7,0,1.8,2.8,1.8,1.6c0-1.3,0-2.6,0-3.9c0-3.7,0-7.4,0-11.1      c0-1.3,0-2.7,0-4c0-2.2,0.2,0.9-1.8,0.9c1.1,0,2.3,0,3.4,0c19.7,0,39.5,0,59.2,0c60.5,0,120.9,0,181.4,0c6.9,0,13.7,0,20.6,0      c1.8,0,3.6,0,5.4,0C366.4,31,363.5,31.4,363.3,29.2c0.5,4.1,3.1,7.5,7.5,7.5c3.7,0,8-3.4,7.5-7.5c-0.9-7.6-5.9-13.2-13.9-13.2      c-1.9,0-3.7,0-5.6,0c-8.5,0-17,0-25.5,0c-29.1,0-58.1,0-87.2,0c-50.3,0-100.6,0-150.8,0c-2.8,0-5.9,0-8.4,1.6      C78.7,22.8,80,31.3,80,39.7c0,8.3-1.1,18.4,8.7,21.9c2.3,0.8,4.4,0.8,6.8,0.8c18.7,0,37.4,0,56.1,0c60.8,0,121.6,0,182.4,0      c9.7,0,19.4,0,29.1,0c6.9,0,12.4-3,14.9-9.9c1.2-3.4,0.4-8.4,0.4-11.9c0-3.8,0-7.7,0-11.5C378.3,19.5,363.3,19.5,363.3,29.2z"/></g></g><g><path d="M307.8,155.1v67.3c0,3.1-2.5,5.7-5.7,5.7h-146c-3.1,0-5.7-2.6-5.7-5.7v-67.3c0-3.1,2.6-5.7,5.7-5.7h146     C305.3,149.4,307.8,151.9,307.8,155.1z" fill="#6FCCDD"/><g><path d="M300.3,155.1c0,22.4,0,44.8,0,67.3c0-1.9,3.1-1.8,0.9-1.8c-1.2,0-2.4,0-3.6,0c-4.5,0-9,0-13.5,0c-14.5,0-29.1,0-43.6,0      c-26.9,0-53.8,0-80.7,0c-1,0-2,0-3.1,0c-1.9,0,1.1,1.3,1.1,1.6c0-4.2,0-8.3,0-12.5c0-15.3,0-30.5,0-45.8c0-2.2,0-4.4,0-6.7      c0-3.8,0.4-0.4-1.8-0.4c1.9,0,3.8,0,5.7,0c11.6,0,23.2,0,34.9,0c30.3,0,60.5,0,90.8,0c3.6,0,7.3,0,10.9,0c1,0,1.9,0,2.9,0      C303.3,156.9,300.5,157.1,300.3,155.1c0.5,4.1,3.1,7.5,7.5,7.5c3.7,0,8-3.4,7.5-7.5c-1.6-14.2-13.7-13.2-24.3-13.2      c-13.2,0-26.5,0-39.7,0c-28.9,0-57.8,0-86.7,0c-2.7,0-5.3,0-8,0c-7.7,0-13.6,6-13.6,13.7c0,12.6,0,25.1,0,37.7      c0,7.2,0,14.4,0,21.6c0,4.2-0.8,10.1,1.6,13.8c5.6,8.8,16.1,6.9,25,6.9c30.1,0,60.1,0,90.2,0c11.9,0,23.9,0,35.8,0      c2.2,0,4.3,0,6.5,0c8.3,0,13.3-7,13.3-14.7c0-21.9,0-43.9,0-65.8C315.3,145.4,300.3,145.4,300.3,155.1z"/></g></g><g><g><path d="M380.7,471.7c9.7,0,9.7-15,0-15S371.1,471.7,380.7,471.7L380.7,471.7z"/></g></g><g><path d="M386.5,469.9v18.6H71.6v-18.6c0-3.2,2.5-5.7,5.7-5.7h303.4C383.9,464.2,386.5,466.7,386.5,469.9z" fill="#544741"/><g><path d="M379,469.9c0,6.2,0,12.4,0,18.6c2.5-2.5,5-5,7.5-7.5c-40.4,0-80.8,0-121.3,0c-57.8,0-115.6,0-173.4,0      c-6.7,0-13.5,0-20.2,0c2.5,2.5,5,5,7.5,7.5c0-6,0-12,0-18.1c0-1.8-2.8,1.2-1.5,1.2c0.5,0,1.1,0,1.6,0c6,0,11.9,0,17.9,0      c25.4,0,50.8,0,76.2,0c59.9,0,119.8,0,179.7,0c6.8,0,13.6,0,20.5,0c1.8,0,3.6,0,5.4,0C382.1,471.7,379.2,472.1,379,469.9      c0.5,4.1,3.1,7.5,7.5,7.5c3.7,0,8-3.4,7.5-7.5c-0.9-7.6-5.8-13.2-13.8-13.2c-1.7,0-3.4,0-5,0c-7.8,0-15.5,0-23.3,0      c-27.4,0-54.9,0-82.3,0c-57.8,0-115.6,0-173.5,0c-6,0-11.9,0-17.9,0c-8.1,0-13.1,5.4-14,13.2c-0.7,6.1,0,12.6,0,18.6      c0,4.1,3.4,7.5,7.5,7.5c40.4,0,80.8,0,121.3,0c57.8,0,115.6,0,173.4,0c6.7,0,13.5,0,20.2,0c4.1,0,7.5-3.4,7.5-7.5      c0-6.2,0-12.4,0-18.6C394,460.2,379,460.2,379,469.9z"/></g></g></g><g><path d="M422.3,191.8V241c0,6.9-5.6,12.5-12.5,12.5h-16.5c-6.9,0-12.5-5.6-12.5-12.5v-49.1    c0-6.9,5.6-12.5,12.5-12.5h16.5C416.7,179.3,422.3,184.9,422.3,191.8z" fill="#6FCCDD"/><g><path d="M414.8,191.8c0,12.3,0,24.7,0,37c0,4.1,0.6,8.8,0,12.8c-1.1,6.6-13,4.3-17.5,4.3c-5.1,0-9-0.6-9-6.6c0-6.3,0-12.7,0-19     c0-7.5,0-15.1,0-22.6c0-4.2-1-10.6,5-10.9c4.2-0.2,8.4,0,12.5,0C409.7,186.8,414.5,186.6,414.8,191.8c0.5,9.6,15.5,9.7,15,0     c-0.6-11.7-9.4-20-21.1-20c-6.9,0-14.6-0.9-21.3,0.9c-17.4,4.8-14.1,26-14.1,39.7c0,7.5,0,15.1,0,22.6c0,6.7,0.1,13,4.6,18.6     c6.3,7.7,15.2,7.3,24.2,7.3c9.2,0,18.6-0.1,24.3-8.8c5.6-8.6,3.4-22.1,3.4-31.8c0-9.5,0-19,0-28.5     C429.8,182.2,414.8,182.2,414.8,191.8z"/></g></g><g><g><g><path d="M394,253.5c0,24.8,0,49.6,0,74.4c0,3.6,0,7.2,0,10.8c0,8.9-3.4,17.2-9.5,23.7c-11.8,12.6-28.8,10.4-44.4,10.4      c-0.3,0-0.6,0-0.9,0c-9.7,0-9.7,15,0,15c15.5,0,31,1.3,45.2-6.5c16.4-9,24.6-26.7,24.6-44.8c0-26.4,0-52.9,0-79.3      c0-1.2,0-2.4,0-3.6C409,243.8,394,243.8,394,253.5L394,253.5z"/></g></g></g><g><g><g><path d="M409,179.3c0-6.6,0-13.3,0-19.9c0-7.6-0.9-15.9,1.5-23.2c2.5-7.6,10.3-11.9,16.4-16.4c5.7-4.2,11.5-8.4,17.2-12.5      c3.3-2.4,4.9-6.5,2.7-10.3c-1.9-3.3-7-5.1-10.3-2.7c-6,4.4-12,8.7-18,13.1c-8.4,6.1-16.8,11.7-21.3,21.6      c-3.9,8.8-3.4,18.1-3.4,27.5c0,7.6,0,15.2,0,22.8C394,189,409,189,409,179.3L409,179.3z"/></g></g></g></g></svg>