<?xml version="1.0" encoding="utf-8"?>
<!-- Generator: Adobe Illustrator 21.1.0, SVG Export Plug-In . SVG Version: 6.00 Build 0)  -->
<svg version="1.1" xmlns="http://www.w3.org/2000/svg" xmlns:xlink="http://www.w3.org/1999/xlink" x="0px" y="0px"
	 viewBox="0 0 48 48" style="enable-background:new 0 0 48 48;" xml:space="preserve">
<style type="text/css">
	.st0{fill:#FFD4C3;stroke:#504B46;stroke-linecap:round;stroke-linejoin:round;stroke-miterlimit:10;}
	.st1{fill:#FFC258;}
	.st2{fill:#4F4B45;}
	.st3{fill:#FABFA5;}
	.st4{fill:none;stroke:#504B46;stroke-linecap:round;stroke-linejoin:round;stroke-miterlimit:10;}
	.Graphic_x0020_Style{opacity:0.15;fill:#45413C;}
	.st5{opacity:0.15;fill:#45413C;}
	.st6{fill:#DEBB7E;stroke:#45413C;stroke-linecap:round;stroke-linejoin:round;stroke-miterlimit:10;}
	.st7{fill:#F0D5A8;}
	.st8{fill:#F7E5C6;}
	.st9{fill:#DEBB7E;}
	.st10{fill:none;stroke:#45413C;stroke-linecap:round;stroke-linejoin:round;stroke-miterlimit:10;}
	.st11{fill:#FFE500;}
	.st12{fill:#EBCB00;}
	.st13{fill:none;stroke:#EBCB00;stroke-linecap:round;stroke-linejoin:round;stroke-miterlimit:10;}
	.st14{fill:#FF6242;stroke:#45413C;stroke-linecap:round;stroke-linejoin:round;stroke-miterlimit:10;}
	.st15{fill:#FFFFFF;stroke:#45413C;stroke-linecap:round;stroke-linejoin:round;stroke-miterlimit:10;}
	.st16{fill:#E5F8FF;}
	.st17{fill:#FFFFFF;}
	.st18{fill:#E8F4FA;}
	.st19{fill:#E8F4FA;stroke:#45413C;stroke-linecap:round;stroke-linejoin:round;stroke-miterlimit:10;}
	.st20{fill:#FFCCDD;}
	.st21{fill:#FFB0CA;stroke:#45413C;stroke-linecap:round;stroke-linejoin:round;stroke-miterlimit:10;}
	.st22{fill:#FF87AF;stroke:#45413C;stroke-linecap:round;stroke-linejoin:round;stroke-miterlimit:10;}
	.st23{fill:#E5F8FF;stroke:#45413C;stroke-linecap:round;stroke-linejoin:round;stroke-miterlimit:10;}
	.st24{fill:#BF8256;stroke:#45413C;stroke-linecap:round;stroke-linejoin:round;stroke-miterlimit:10;}
	.st25{fill:#9CEB60;}
	.st26{fill:#6DD627;}
	.st27{fill:#C8FFA1;}
	.st28{fill:#FFFACF;}
	.st29{fill:#FF87AF;}
	.st30{fill:#FFB0CA;}
	.st31{fill:#FF6196;}
	.st32{fill:#FFCCDD;stroke:#45413C;stroke-linecap:round;stroke-linejoin:round;stroke-miterlimit:10;}
	.st33{fill:#FF6196;stroke:#45413C;stroke-linecap:round;stroke-linejoin:round;stroke-miterlimit:10;}
	.st34{fill:#FFE5EE;}
	.st35{fill:#00B8F0;}
	.st36{fill:#4ACFFF;}
	.st37{fill:#BF8256;}
	.st38{fill:#DEA47A;}
	.st39{fill:#915E3A;}
	.st40{fill:#FFF5E3;}
	.st41{fill:#F0F0F0;}
	.st42{fill:#8CA4B8;}
	.st43{fill:#627B8C;}
	.st44{fill:#C0DCEB;}
	.st45{fill:#FFF48C;}
	.st46{fill:#FFE500;stroke:#45413C;stroke-linecap:round;stroke-linejoin:round;stroke-miterlimit:10;}
	.st47{fill:#FFAA54;}
	.st48{fill:#6DD627;stroke:#45413C;stroke-linecap:round;stroke-linejoin:round;stroke-miterlimit:10;}
	.st49{fill:#FF8A14;}
	.st50{fill:#FFCC99;}
	.st51{fill:#EBCB00;stroke:#45413C;stroke-linecap:round;stroke-linejoin:round;stroke-miterlimit:10;}
	.st52{fill:#00F5BC;stroke:#45413C;stroke-linecap:round;stroke-linejoin:round;stroke-miterlimit:10;}
	.st53{fill:#BF8DF2;stroke:#45413C;stroke-linecap:round;stroke-linejoin:round;stroke-miterlimit:10;}
	.st54{fill:#FF8A14;stroke:#45413C;stroke-linecap:round;stroke-linejoin:round;stroke-miterlimit:10;}
	.st55{fill:#4AEFF7;stroke:#45413C;stroke-linecap:round;stroke-linejoin:round;stroke-miterlimit:10;}
	.st56{fill:#FFF48C;stroke:#45413C;stroke-linecap:round;stroke-linejoin:round;stroke-miterlimit:10;}
	.st57{fill:#FF6242;}
	.st58{fill:#E04122;}
	.st59{fill:#46B000;}
	.st60{fill:none;stroke:#45413C;stroke-miterlimit:10;}
	.st61{fill:#00B8F0;stroke:#45413C;stroke-linecap:round;stroke-linejoin:round;stroke-miterlimit:10;}
	.st62{fill:#FF866E;}
	.st63{fill:#9F5AE5;stroke:#45413C;stroke-linecap:round;stroke-linejoin:round;stroke-miterlimit:10;}
	.st64{fill:#E4FFD1;}
	.st65{fill:#FFFEF2;}
	.st66{fill:#B89558;}
	.st67{fill:none;stroke:#915E3A;stroke-linecap:round;stroke-linejoin:round;stroke-miterlimit:10;}
	.st68{fill:#915E3A;stroke:#45413C;stroke-linecap:round;stroke-linejoin:round;stroke-miterlimit:10;}
	.st69{fill:#BF8DF2;}
	.st70{fill:#9F5AE5;}
	.st71{fill:#DABFF5;}
	.st72{fill:none;stroke:#45413C;stroke-linejoin:round;stroke-miterlimit:10;}
	.st73{fill:#656769;}
	.st74{fill:#87898C;}
	.st75{fill:#E0E0E0;}
	.st76{fill:#BDBEC0;}
	.st77{fill:#656769;stroke:#45413C;stroke-linecap:round;stroke-linejoin:round;stroke-miterlimit:10;}
	.st78{fill:#45413C;stroke:#45413C;stroke-linecap:round;stroke-linejoin:round;stroke-miterlimit:10;}
	.st79{fill:#FFA694;}
	.st80{fill:#E04122;stroke:#45413C;stroke-linecap:round;stroke-linejoin:round;stroke-miterlimit:10;}
	.st81{fill:#E0E0E0;stroke:#45413C;stroke-linecap:round;stroke-linejoin:round;stroke-miterlimit:10;}
	.st82{fill:#F0F0F0;stroke:#45413C;stroke-linecap:round;stroke-linejoin:round;stroke-miterlimit:10;}
	.st83{fill:#DAEDF7;}
	.st84{fill:#BDBEC0;stroke:#45413C;stroke-linecap:round;stroke-linejoin:round;stroke-miterlimit:10;}
	.st85{fill:#87898C;stroke:#45413C;stroke-linecap:round;stroke-linejoin:round;stroke-miterlimit:10;}
	.st86{fill:#00DFEB;}
	.st87{fill:#4AEFF7;}
	.st88{fill:#DAEDF7;stroke:#45413C;stroke-linecap:round;stroke-linejoin:round;stroke-miterlimit:10;}
	.st89{fill:#FFDA8F;}
	.st90{fill:#FFBE3D;}
	.st91{fill:#FFE9BD;}
	.st92{fill:#DEA47A;stroke:#45413C;stroke-linecap:round;stroke-linejoin:round;stroke-miterlimit:10;}
	.st93{fill:#45413C;}
	.st94{fill:#F0C2A1;}
	.st95{fill:none;stroke:#45413C;stroke-width:1.0064;stroke-linecap:round;stroke-linejoin:round;stroke-miterlimit:10;}
	.st96{fill:#525252;}
	.st97{fill:#EB6D00;stroke:#45413C;stroke-linecap:round;stroke-linejoin:round;stroke-miterlimit:10;}
	.st98{fill:#EB6D00;}
	.st99{fill:#E5FEFF;}
	.st100{fill:#FF866E;stroke:#45413C;stroke-linecap:round;stroke-linejoin:round;stroke-miterlimit:10;}
	.st101{fill:#627B8C;stroke:#45413C;stroke-linecap:round;stroke-linejoin:round;stroke-miterlimit:10;}
	.st102{fill:#FFFCE5;stroke:#45413C;stroke-linecap:round;stroke-linejoin:round;stroke-miterlimit:10;}
	.st103{fill:#A6FBFF;}
	.st104{fill:#D9FDFF;}
	.st105{fill:#FFFACF;stroke:#45413C;stroke-linecap:round;stroke-linejoin:round;stroke-miterlimit:10;}
	.st106{fill:#B8ECFF;}
	.st107{fill:#FFCABF;}
	.st108{fill:#E5FFF9;}
	.st109{fill:#C8FFA1;stroke:#45413C;stroke-linecap:round;stroke-linejoin:round;stroke-miterlimit:10;}
	.st110{fill:#4CF4FC;}
	.st111{fill:#F0D5A8;stroke:#45413C;stroke-linecap:round;stroke-linejoin:round;stroke-miterlimit:10;}
	.st112{fill:#FFDCD1;stroke:#45413C;stroke-linecap:round;stroke-linejoin:round;stroke-miterlimit:10;}
	.st113{fill:#80DDFF;}
	.st114{fill:#46B000;stroke:#45413C;stroke-linecap:round;stroke-linejoin:round;stroke-miterlimit:10;}
	.st115{fill:#4ACFFF;stroke:#45413C;stroke-linecap:round;stroke-linejoin:round;stroke-miterlimit:10;}
	.st116{fill:#ADC4D9;}
	.st117{fill:#BDBEC0;stroke:#45413C;stroke-width:1.0064;stroke-linecap:round;stroke-linejoin:round;stroke-miterlimit:10;}
	.st118{fill:#FFFCE5;}
	.st119{fill:#947746;}
	.st120{fill:#525252;stroke:#45413C;stroke-linecap:round;stroke-linejoin:round;stroke-miterlimit:10;}
</style>
<symbol  id="New_Symbol_14" viewBox="-6.5 -6.5 13 13">
	<path class="st0" d="M0-6c2.2,0,4.1,1.5,4.7,3.5c0,0,0,0,0,0C6.3-2.5,6.4,0,5,0v1c0,2.8-2.2,5-5,5c-2.8,0-5-2.2-5-5V0
		c-1.4,0-1.3-2.5,0.2-2.5c0,0,0,0,0,0C-4.1-4.5-2.2-6,0-6z"/>
	<g>
		<circle class="st1" cx="-1.6" cy="-0.1" r="0.1"/>
		<path class="st2" d="M-1.6,0.5c-0.3,0-0.6-0.3-0.6-0.6S-2-0.8-1.6-0.8C-1.3-0.8-1-0.5-1-0.1S-1.3,0.5-1.6,0.5L-1.6,0.5z"/>
	</g>
	<g>
		<circle class="st1" cx="1.6" cy="-0.1" r="0.1"/>
		<path class="st2" d="M1.6,0.5C1.3,0.5,1,0.2,1-0.1s0.3-0.6,0.6-0.6c0.3,0,0.6,0.3,0.6,0.6S2,0.5,1.6,0.5L1.6,0.5z"/>
	</g>
	<circle class="st3" cx="-3" cy="-1.5" r="0.5"/>
	<circle class="st3" cx="3" cy="-1.5" r="0.5"/>
	<path class="st4" d="M-1.2-3c0.8-0.5,1.7-0.5,2.5,0"/>
</symbol>
<g id="Bg">
</g>
<g id="Icons">
	<g id="XMLID_1973_">
		<rect id="XMLID_2430_" x="13.3" y="16.6" class="st9" width="4.3" height="22.3"/>
		<path id="XMLID_2429_" class="st66" d="M13.3,32.1c0.4,0.2,0.8,0.3,1.3,0.3c1.2,0,2.3-0.8,2.8-1.8c0.1,0,0.2,0,0.2,0.1V16.6h-4.3
			V32.1z"/>
		<rect id="XMLID_2428_" x="13.3" y="16.6" class="st10" width="4.3" height="22.3"/>
		<path id="XMLID_2427_" class="st26" d="M15.4,6.8c-5.5,0-10,4.3-10.4,9.7c-2.5,1-4.2,3.4-4.2,6.2c0,3.7,3,6.6,6.6,6.6
			c1.9,0,3.6-0.8,4.8-2.1c1,0.3,2.1,0.5,3.2,0.5c5.8,0,10.4-4.7,10.4-10.4S21.2,6.8,15.4,6.8z"/>
		<path id="XMLID_2426_" class="st25" d="M5,19.3c0.4-5.4,4.9-9.7,10.4-9.7c5.3,0,9.7,3.9,10.3,9.1c0.1-0.5,0.1-0.9,0.1-1.4
			c0-5.8-4.7-10.4-10.4-10.4c-5.5,0-10,4.3-10.4,9.7c-2.5,1-4.2,3.4-4.2,6.2c0,0.5,0.1,1,0.2,1.4C1.4,21.9,2.9,20.1,5,19.3z"/>
		<path id="XMLID_2425_" class="st10" d="M15.4,6.8c-5.5,0-10,4.3-10.4,9.7c-2.5,1-4.2,3.4-4.2,6.2c0,3.7,3,6.6,6.6,6.6
			c1.9,0,3.6-0.8,4.8-2.1c1,0.3,2.1,0.5,3.2,0.5c5.8,0,10.4-4.7,10.4-10.4S21.2,6.8,15.4,6.8z"/>
		<path id="XMLID_2424_" class="st57" d="M15.4,21.9L27,15.1c0.5-0.3,1.2-0.3,1.7,0l11.7,6.8c0.7,0.4,0.9,1.2,0.6,1.9l0,0
			c-0.4,0.8-1.3,1.1-2.1,0.6l-11-6.4l-11,6.4c-0.8,0.4-1.7,0.1-2.1-0.6l0,0C14.4,23.1,14.7,22.3,15.4,21.9z"/>
		<path id="XMLID_2423_" class="st62" d="M14.9,24c0.1-0.2,0.3-0.3,0.5-0.4L27,16.8c0.5-0.3,1.2-0.3,1.7,0l11.7,6.8
			c0.2,0.1,0.4,0.3,0.5,0.4c0-0.1,0.1-0.1,0.1-0.2c0.3-0.7,0.1-1.5-0.6-1.9l-11.7-6.8c-0.5-0.3-1.2-0.3-1.7,0l-11.7,6.8
			c-0.7,0.4-0.9,1.2-0.6,1.9C14.8,23.9,14.8,24,14.9,24z"/>
		<path id="XMLID_2422_" class="st10" d="M15.4,21.9L27,15.1c0.5-0.3,1.2-0.3,1.7,0l11.7,6.8c0.7,0.4,0.9,1.2,0.6,1.9l0,0
			c-0.4,0.8-1.3,1.1-2.1,0.6l-11-6.4l-11,6.4c-0.8,0.4-1.7,0.1-2.1-0.6l0,0C14.4,23.1,14.7,22.3,15.4,21.9z"/>
		<ellipse id="XMLID_2421_" class="st5" cx="26.2" cy="39.7" rx="21" ry="1.5"/>
		<polygon id="XMLID_2420_" class="st28" points="38.2,38.9 17.6,38.9 17.6,24 27.9,18 38.2,24 		"/>
		<polygon id="XMLID_2419_" class="st45" points="27.9,18 17.6,24 17.6,26.4 27.9,20.4 38.2,26.4 38.2,24 		"/>
		<polygon id="XMLID_2418_" class="st10" points="38.2,38.9 17.6,38.9 17.6,24 27.9,18 38.2,24 		"/>
		<path id="XMLID_2417_" class="st81" d="M29.2,38.9h-9.9v-1.3c0-0.5,0.4-0.9,0.9-0.9h8.2c0.5,0,0.9,0.4,0.9,0.9V38.9z"/>
		<path id="XMLID_1763_" class="st37" d="M27.1,26.4h-5.6c-0.5,0-0.9,0.4-0.9,0.9v9.4h7.3v-9.4C27.9,26.8,27.5,26.4,27.1,26.4z"/>
		<path id="XMLID_722_" class="st39" d="M27.1,26.4h-5.6c-0.5,0-0.9,0.4-0.9,0.9V29c0-0.5,0.4-0.9,0.9-0.9h5.6
			c0.5,0,0.9,0.4,0.9,0.9v-1.7C27.9,26.8,27.5,26.4,27.1,26.4z"/>
		<path id="XMLID_721_" class="st10" d="M27.1,26.4h-5.6c-0.5,0-0.9,0.4-0.9,0.9v9.4h7.3v-9.4C27.9,26.8,27.5,26.4,27.1,26.4z"/>
		<path id="XMLID_720_" class="st35" d="M34.8,31.6h-3.4c-0.5,0-0.9-0.4-0.9-0.9v-3.4c0-0.5,0.4-0.9,0.9-0.9h3.4
			c0.5,0,0.9,0.4,0.9,0.9v3.4C35.6,31.2,35.3,31.6,34.8,31.6z"/>
		<path id="XMLID_718_" class="st36" d="M34.8,26.4h-3.4c-0.5,0-0.9,0.4-0.9,0.9v3.4c0,0.5,0.4,0.9,0.9,0.9H32l3-5.1
			C34.9,26.5,34.8,26.4,34.8,26.4z"/>
		<path id="XMLID_717_" class="st35" d="M25.3,32h-2.1c-0.5,0-0.9-0.4-0.9-0.9V29c0-0.5,0.4-0.9,0.9-0.9h2.1c0.5,0,0.9,0.4,0.9,0.9
			v2.1C26.2,31.6,25.8,32,25.3,32z"/>
		<path id="XMLID_716_" class="st36" d="M25.3,28.1h-2.1c-0.5,0-0.9,0.4-0.9,0.9v2.1c0,0.5,0.4,0.9,0.9,0.9h0.2l2.2-3.8
			C25.5,28.2,25.4,28.1,25.3,28.1z"/>
		<path id="XMLID_713_" class="st10" d="M34.8,31.6h-3.4c-0.5,0-0.9-0.4-0.9-0.9v-3.4c0-0.5,0.4-0.9,0.9-0.9h3.4
			c0.5,0,0.9,0.4,0.9,0.9v3.4C35.6,31.2,35.3,31.6,34.8,31.6z"/>
		<path id="XMLID_712_" class="st10" d="M25.3,32h-2.1c-0.5,0-0.9-0.4-0.9-0.9V29c0-0.5,0.4-0.9,0.9-0.9h2.1c0.5,0,0.9,0.4,0.9,0.9
			v2.1C26.2,31.6,25.8,32,25.3,32z"/>
		<path id="XMLID_709_" class="st26" d="M45.5,38.9c0.5-0.4,0.9-1,0.9-1.7c0-1.2-1-2.1-2.1-2.1c-0.5,0-1,0.2-1.4,0.5
			c-0.4-1.8-1.9-3.1-3.8-3.1c-2.1,0-3.9,1.7-3.9,3.9c0,1,0.4,1.9,1,2.6H45.5z"/>
		<path id="XMLID_708_" class="st25" d="M39.1,34.2c1.9,0,3.4,1.3,3.8,3.1c0.4-0.3,0.8-0.5,1.4-0.5c0.9,0,1.6,0.5,2,1.3
			c0.1-0.3,0.2-0.5,0.2-0.9c0-1.2-1-2.1-2.1-2.1c-0.5,0-1,0.2-1.4,0.5c-0.4-1.8-1.9-3.1-3.8-3.1c-2.1,0-3.9,1.7-3.9,3.9
			c0,0.3,0,0.6,0.1,0.9C35.7,35.5,37.2,34.2,39.1,34.2z"/>
		<path id="XMLID_707_" class="st10" d="M45.5,38.9c0.5-0.4,0.9-1,0.9-1.7c0-1.2-1-2.1-2.1-2.1c-0.5,0-1,0.2-1.4,0.5
			c-0.4-1.8-1.9-3.1-3.8-3.1c-2.1,0-3.9,1.7-3.9,3.9c0,1,0.4,1.9,1,2.6H45.5z"/>
	</g>
</g>
</svg>
