<svg id="Layer_1" data-name="Layer 1" xmlns="http://www.w3.org/2000/svg" viewBox="0 0 128 128"><defs><style>.cls-1{fill:#a37c62;}.cls-2{fill:#a1785e;}.cls-3{fill:#efc8a5;}.cls-4{fill:#aa8064;}.cls-5{fill:#836552;}.cls-10,.cls-15,.cls-6,.cls-9{fill:none;stroke:#333;}.cls-6,.cls-9{stroke-linejoin:round;stroke-width:4px;}.cls-7{fill:#333;}.cls-8{fill:#b58d72;}.cls-15,.cls-9{stroke-linecap:round;}.cls-10,.cls-15{stroke-miterlimit:10;}.cls-10{stroke-width:3px;}.cls-11{fill:#3882b2;}.cls-12{fill:#3f3a39;}.cls-13{fill:#bc2928;}.cls-14{fill:#a42b2b;}.cls-15{stroke-width:2px;}</style></defs><title>traditional-african-man</title><rect class="cls-1" x="47.45" y="70.66" width="33.08" height="41.2"/><polygon class="cls-2" points="80.53 111.86 80.53 76.41 73.47 81.43 63.27 79.06 53.71 75.81 47.45 77.06 79.67 111.86 80.53 111.86"/><path class="cls-3" d="M88.08,43.81a53.77,53.77,0,0,0,.5-8.84c0-11.18-6.52-21.66-24.59-21.68S39.4,23.79,39.4,35a53.77,53.77,0,0,0,.5,8.84c-3.56-.27-6.47,3.26-5.42,8.23a11.1,11.1,0,0,0,6.57,8.35V65c0,5.13,6.73,13,14.28,16.7A15.19,15.19,0,0,0,62,83.21H66a15.2,15.2,0,0,0,6.69-1.55C80.2,77.91,86.93,70.09,86.93,65V60.39A11.12,11.12,0,0,0,93.5,52C94.55,47.07,91.64,43.54,88.08,43.81Z"/><path class="cls-4" d="M88.08,43.81a53.77,53.77,0,0,0,.5-8.84c0-11.18-6.52-21.66-24.59-21.68S39.4,23.79,39.4,35a53.77,53.77,0,0,0,.5,8.84c-3.56-.27-6.47,3.26-5.42,8.23a11.1,11.1,0,0,0,6.57,8.35V65c0,5.13,6.73,13,14.28,16.7A15.19,15.19,0,0,0,62,83.21H66a15.2,15.2,0,0,0,6.69-1.55C80.2,77.91,86.93,70.09,86.93,65V60.39A11.12,11.12,0,0,0,93.5,52C94.55,47.07,91.64,43.54,88.08,43.81Z"/><path class="cls-1" d="M93.51,48.3c-.65-2.88-2.86-4.69-5.43-4.49a53.77,53.77,0,0,0,.5-8.84c0-11.18-6.52-21.66-24.59-21.68-1,0-1.86,0-2.75.1-.28,0-.56,0-.83.07l-1.49,6.16a103.55,103.55,0,0,0-7.43,40.11,178.38,178.38,0,0,0,.7,20.1,28.47,28.47,0,0,0,3.14,1.83A15.19,15.19,0,0,0,62,83.21H66a15.2,15.2,0,0,0,6.69-1.55C80.2,77.91,86.93,70.09,86.93,65V60.84l-.22-.45a11,11,0,0,0,6.5-8.32A13,13,0,0,0,93.51,48.3Z"/><path class="cls-5" d="M90,43.8c.89-3.45-.87-7-1.3-10.59-1.18-10-.24-11.84-9.76-18.41-4.37-3.13-9.59-2.78-15-2.89-5.39.11-10.61-.24-15,2.89-9.54,6.57-8.6,8.47-9.76,18.52-.42,3.54-2.18,7.13-1.28,10.59l3.66,3.48c.45,1.07.59,1.33,1.32,2.77a.46.46,0,0,0,.61.23.45.45,0,0,0,.27-.44V39.78l1.51-3a4.45,4.45,0,0,0,.47-2v-3a4.46,4.46,0,0,1,3-4.24,47.51,47.51,0,0,1,15.15-2.86,47.51,47.51,0,0,1,15.15,2.86c4.51,1.61,2.12,6.55,3.43,9.13l1.51,3V49.82a.47.47,0,0,0,.44.49A.49.49,0,0,0,84.9,50c.72-1.45.87-1.7,1.33-2.8Z"/><path class="cls-6" d="M88.08,43.81a53.77,53.77,0,0,0,.5-8.84c0-11.18-6.52-21.66-24.59-21.68S39.4,23.79,39.4,35a53.77,53.77,0,0,0,.5,8.84c-3.56-.27-6.47,3.26-5.42,8.23a11.1,11.1,0,0,0,6.57,8.35c0,10.47,6.73,17.52,14.28,21.27,2.08,1,4.37,2.41,6.68,2.41H66c2.32,0,4.61-1.39,6.69-2.41,7.55-3.75,14.28-10.8,14.28-21.27A11.12,11.12,0,0,0,93.5,52C94.55,47.07,91.64,43.54,88.08,43.81Z"/><path class="cls-7" d="M72.14,107.05a1.72,1.72,0,1,1-1.72,1.72,1.72,1.72,0,0,1,1.72-1.72"/><path class="cls-8" d="M120.39,106.15a14.58,14.58,0,0,0-10.11-11.41L80.53,88.11v.07c0,3.63-7.41,6.57-16.54,6.57s-16.54-2.94-16.54-6.57c0,0,0-.05,0-.07L17.7,94.74A14.58,14.58,0,0,0,7.59,106.15L7,109.78a140.89,140.89,0,0,0,57,12.11H64a140.89,140.89,0,0,0,57-12.11Z"/><path class="cls-1" d="M110.28,100.8,80.53,92.16V90.73H79.24c-2.51,2.36-8.39,4-15.25,4s-12.74-1.66-15.25-4H47.45v1.44L17.7,100.8a14.56,14.56,0,0,0-9.62,9.43A140.91,140.91,0,0,0,64,121.89H64a140.83,140.83,0,0,0,55.86-11.66A14.52,14.52,0,0,0,110.28,100.8Z"/><path class="cls-2" d="M110.28,98.91l-19-4.79L81.23,91.26l-.71,1s0,0,0,.07l-4-4.23c-3,1.47-12.46,1.52-17.61,1.52-.06,0,5,5.11,5,5.11l23.07,24.92,6.34-.89a140.28,140.28,0,0,0,27.09-8.72A14.54,14.54,0,0,0,110.28,98.91Z"/><path class="cls-6" d="M47.45,88.18s0-.05,0-.07L17.7,94.74A14.58,14.58,0,0,0,7.59,106.15L7,109.78a140.89,140.89,0,0,0,57,12.11H64a140.89,140.89,0,0,0,57-12.11l-.59-3.63a14.58,14.58,0,0,0-10.11-11.41L80.53,88.11v.07"/><line class="cls-9" x1="80.53" y1="75.81" x2="80.53" y2="91.21"/><line class="cls-9" x1="47.45" y1="91.21" x2="47.45" y2="75.81"/><path class="cls-10" d="M41.21,62.37a4.63,4.63,0,1,1-4.63-4.63"/><path class="cls-11" d="M36.58,63.53a3.28,3.28,0,1,0,3.28,3.27A3.28,3.28,0,0,0,36.58,63.53Z"/><path class="cls-10" d="M36.58,63.53a3.28,3.28,0,1,0,3.28,3.27A3.28,3.28,0,0,0,36.58,63.53Z"/><path class="cls-10" d="M86.77,62.37a4.63,4.63,0,1,0,4.63-4.63"/><path class="cls-11" d="M88.12,66.8a3.28,3.28,0,1,0,3.28-3.27A3.28,3.28,0,0,0,88.12,66.8Z"/><path class="cls-10" d="M88.12,66.8a3.28,3.28,0,1,0,3.28-3.27A3.28,3.28,0,0,0,88.12,66.8Z"/><path class="cls-12" d="M81.05,81.89a10.17,10.17,0,0,1,.78,3.87c0,7.35-8,13.31-17.84,13.31s-17.84-6-17.84-13.31a10.17,10.17,0,0,1,.78-3.87c-6.13,3.7-10,9.36-10,15.69C36.89,108.75,49,117.8,64,117.8s27.1-9,27.1-20.22C91.09,91.25,87.17,85.59,81.05,81.89Z"/><path class="cls-7" d="M88.11,88.41a22.67,22.67,0,0,0-7.06-6.52,10.17,10.17,0,0,1,.78,3.87c0,7.35-8,13.31-17.84,13.31s-17.84-6-17.84-13.31a10.17,10.17,0,0,1,.78-3.87,22.67,22.67,0,0,0-7.06,6.52,12.47,12.47,0,0,0-.12,1.51C39.75,99.9,50.6,108,64,108s24.24-8.1,24.24-18.08A12.47,12.47,0,0,0,88.11,88.41Z"/><path class="cls-13" d="M72,97.64l15.83,9.56a16.32,16.32,0,0,0,3.25-9.62s0-.11,0-.17L80.41,91A16,16,0,0,1,72,97.64Z"/><path class="cls-14" d="M80.41,91l0,.06q-.3.51-.66,1c-.13.18-.29.36-.44.55s-.25.33-.4.49-.38.4-.57.6l-.37.36c-.23.21-.47.42-.72.62l-.32.26c-.27.22-.56.43-.86.63l-.26.18c-.33.21-.66.41-1,.61l-.19.11c-.37.2-.75.4-1.15.58l-.11,0a13.64,13.64,0,0,1-1.3.54h0l8.77,5.3a18.12,18.12,0,0,0,6.43-7.86Z"/><path class="cls-13" d="M47.57,91,36.9,97.41c0,.06,0,.12,0,.17a16.32,16.32,0,0,0,3.25,9.62L56,97.64A16,16,0,0,1,47.57,91Z"/><path class="cls-14" d="M54.55,97c-.39-.18-.77-.38-1.13-.58l-.21-.12q-.51-.28-1-.6l-.28-.19c-.29-.2-.58-.4-.85-.61l-.33-.28c-.24-.2-.48-.4-.71-.61s-.25-.25-.37-.37l-.58-.59c-.14-.16-.26-.33-.39-.49s-.31-.37-.44-.56-.37-.55-.55-.83a1.94,1.94,0,0,0-.15-.24l-6.8,4.11a18.05,18.05,0,0,0,6.43,7.86L56,97.64h0c-.44-.16-.86-.34-1.27-.53Z"/><path class="cls-13" d="M57.66,98.19v19a35.43,35.43,0,0,0,12.66,0v-19a23.21,23.21,0,0,1-12.66,0Z"/><path class="cls-14" d="M61.09,98.88l-.41,0c-.5-.07-1-.16-1.47-.26h-.05c-.5-.1-1-.23-1.47-.36h0v9.16a31.15,31.15,0,0,0,12.66,0V98.19h0c-.49.14-1,.26-1.48.37l-.1,0c-.47.09-.94.18-1.43.25l-.48,0c-.37.05-.74.1-1.12.12-.56,0-1.13.07-1.71.07s-1.14,0-1.7-.07Q61.68,99,61.09,98.88Z"/><path class="cls-9" d="M81.05,81.89a10.17,10.17,0,0,1,.78,3.87c0,7.35-8,13.31-17.84,13.31s-17.84-6-17.84-13.31a10.17,10.17,0,0,1,.78-3.87c-6.13,3.7-10,9.36-10,15.69C36.89,108.75,49,117.8,64,117.8s27.1-9,27.1-20.22C91.09,91.25,87.17,85.59,81.05,81.89Z"/><path class="cls-14" d="M84.63,18.44c0,2.32-1.88,2-4.2,2H47.55c-2.31,0-4.19.33-4.19-2V10.2A4.2,4.2,0,0,1,47.55,6H80.43a4.2,4.2,0,0,1,4.2,4.2Z"/><path class="cls-6" d="M84.63,18.44c0,2.32-1.88,2-4.2,2H47.55c-2.31,0-4.19.33-4.19-2V10.2A4.2,4.2,0,0,1,47.55,6H80.43a4.2,4.2,0,0,1,4.2,4.2Z"/><line class="cls-6" x1="48.48" y1="6" x2="53.31" y2="20.43"/><line class="cls-6" x1="57.05" y1="6" x2="61.89" y2="20.43"/><line class="cls-6" x1="65.62" y1="6" x2="70.46" y2="20.43"/><line class="cls-6" x1="74.2" y1="6" x2="79.03" y2="20.43"/><path class="cls-12" d="M65.92,105.21a1.73,1.73,0,1,1-1.72-1.72A1.73,1.73,0,0,1,65.92,105.21Z"/><path class="cls-12" d="M45.07,98.46A1.44,1.44,0,1,1,43.63,97,1.43,1.43,0,0,1,45.07,98.46Z"/><path class="cls-12" d="M85.78,98.46A1.44,1.44,0,1,1,84.34,97,1.43,1.43,0,0,1,85.78,98.46Z"/><path class="cls-7" d="M53.15,48a2.29,2.29,0,0,1,2.5,2,2.56,2.56,0,0,1-5,0,2.29,2.29,0,0,1,2.5-2"/><path class="cls-7" d="M74.83,48a2,2,0,1,1-2,2,2,2,0,0,1,2-2"/><line class="cls-15" x1="59.75" y1="67.95" x2="67.75" y2="67.95"/><line class="cls-15" x1="63.35" y1="71.95" x2="64.81" y2="71.95"/><path class="cls-15" d="M60.52,61.74l2,.61a5.48,5.48,0,0,0,3.16,0l2-.61"/></svg>