<?xml version="1.0" ?><svg height="64" viewBox="0 0 64 64" width="64" xmlns="http://www.w3.org/2000/svg"><title/><g data-name="set-016@surgeon-white-male" id="f793d2e4-de60-46e8-80c7-79d3455278b3"><g data-name="police-officers-black-male" id="ae1d69ad-6041-455d-a1bc-d1fd0de98c29"><g data-name="police-officers-black-male-2" id="eb4c5483-5a44-4988-ab1c-f963b6f2ea39"><g data-name="Icons" id="ba53cf96-05f4-4d02-ac9c-6a375f7f2e22"><path d="M56.39,50.57A4.931,4.931,0,0,0,53,46.94L39.62,42.5V37H24.24v5.6L10.93,46.94a4.909,4.909,0,0,0-3.32,3.63C7.4,51.68,7,53.94,7,53.94a61.7,61.7,0,0,0,25,5,61.7,61.7,0,0,0,25-5S56.6,51.68,56.39,50.57Z" fill="#916953"/><path d="M39.62,42.5,53,46.94a4.931,4.931,0,0,1,3.39,3.63c.21,1.11.61,3.37.61,3.37a61.7,61.7,0,0,1-25,5,61.7,61.7,0,0,1-25-5s.4-2.26.61-3.37a4.909,4.909,0,0,1,3.32-3.63L24.24,42.6,32,45.94Z" fill="#3c495a"/><path d="M24.24,40.42V37H39.61v3.46l-7.67,5.52Z" fill="none" stroke="#333" stroke-linejoin="round" stroke-width="1.647"/><path d="M42.91,23.08v-2.2c0-5.95-2.09-12.08-11-12.08S21,14.93,21,20.88v2.2c-.09,0-3.29,0-2.2,5.49A4.271,4.271,0,0,0,22,31.86c0,3.9,1.1,4.39,4.81,8.21,1.43,1.82,3.17,1.67,5.07,1.67s3.65.15,5.07-1.67c3.71-3.82,4.81-4.31,4.81-8.21a4.27,4.27,0,0,0,3.29-3.29C46.2,23.08,43,23,42.91,23.08Z" fill="#a88064"/><path d="M23.56,30.76A3.67,3.67,0,0,1,22,27.47V24.78a2.441,2.441,0,0,0-1.46-1.65c-.83.17-2.72,1-1.83,5.45A4.27,4.27,0,0,0,22,31.87c0,3.3.8,4.17,3.29,6.68V35.17A5.22,5.22,0,0,0,23.56,30.76Z" fill="#a0775c"/><path d="M42.91,23.08v-2.2c0-5.95-2.09-12.08-11-12.08a17.291,17.291,0,0,0-3.29.29V19.78a2.371,2.371,0,0,1-2.2,2.2s3.29,0,4.39,2.2h1.1v3.17a1.69,1.69,0,0,0,.64,1.4,1.1,1.1,0,0,1-.64,2h0c-.81,0-1.1-.55-2.2-.55-.65,0-.55.85-.57.82a2.378,2.378,0,0,1,1.1.29,3.379,3.379,0,0,0,1.65.43h0v3.31a1.91,1.91,0,0,0,1.25,1.76,1.55,1.55,0,0,1,.94,1.63c0,3-5.43-.3-5.43,3a9.544,9.544,0,0,0,3.24.31c1.9,0,3.65.15,5.07-1.67,3.73-3.8,4.83-4.29,4.83-8.19a4.27,4.27,0,0,0,3.29-3.29C46.2,23.08,43,23,42.91,23.08Z" fill="#a0775c"/><path d="M44.34,23.65a2.112,2.112,0,0,0-1.43-.57v-2.2c0-5.95-2.09-12.08-11-12.08S21,14.93,21,20.88v2.2a2.333,2.333,0,0,0-1.42.58c2.61,2.21,7.16,3.74,12.39,3.74S41.74,25.89,44.34,23.65Z" fill="#a0775c"/><path d="M42.94,23.07a2.18,2.18,0,0,0-1.12,1.87v2.53a3.641,3.641,0,0,1-1.52,3.29,5.238,5.238,0,0,0-1.78,4.39v3.38c2.5-2.51,3.29-3.38,3.29-6.68a4.27,4.27,0,0,0,3.29-3.29C46.17,23.25,43.21,23.05,42.94,23.07Z" fill="#916953"/><path d="M42.91,23.08v-2.2c0-5.95-2.09-12.08-11-12.08S21,14.93,21,20.88v2.2c-.09,0-3.29,0-2.2,5.49A4.271,4.271,0,0,0,22,31.86c0,3.9,1.1,4.39,4.81,8.21,1.43,1.82,3.17,1.67,5.07,1.67s3.65.15,5.07-1.67c3.71-3.82,4.81-4.31,4.81-8.21a4.27,4.27,0,0,0,3.29-3.29C46.2,23.08,43,23,42.91,23.08Z" fill="none" stroke="#333" stroke-linejoin="round" stroke-width="1.647"/><path d="M47.23,45.08,53,46.94a4.931,4.931,0,0,1,3.39,3.63c.21,1.11.61,3.37.61,3.37a61.7,61.7,0,0,1-25,5,61.7,61.7,0,0,1-25-5s.4-2.26.61-3.37a4.909,4.909,0,0,1,3.32-3.63l5.83-1.88" fill="none" stroke="#343433" stroke-linejoin="round" stroke-width="1.5"/><path d="M25.62,17.58,23.93,18v2l-1,2v5c0-2.17-1-3-3-3V21c0-5,2-12,12-12s12,7,12,12v3a2.711,2.711,0,0,0-3,2.386v0a3.108,3.108,0,0,0,0,.61V22l-1-2V18l-1.69-.42A25.913,25.913,0,0,0,25.62,17.58Z" fill="#333" stroke="#333" stroke-linecap="round" stroke-linejoin="round"/><path d="M42.93,8.83A39,39,0,0,1,31.93,5a39,39,0,0,1-11,3.83,20,20,0,0,1-5.5,5.88,1.651,1.651,0,0,0-.3,2.315c.04.05.082.1.127.145l4.22,4.24c2.69-2.14,7.24-3.56,12.43-3.56s9.74,1.42,12.43,3.56l4.24-4.23a1.639,1.639,0,0,0,0-2.319,1.523,1.523,0,0,0-.16-.141A20.917,20.917,0,0,1,42.93,8.83Z" fill="#3c495a"/><path d="M48.44,14.73c-1.72-1.43-3.87-2.41-5.51-5.9,0,0-9.21-1.92-11-3.83v7.86l-5.13,4a18.741,18.741,0,0,0-8.48,3.38l1.16,1.17c2.69-2.14,7.24-3.56,12.43-3.56s9.74,1.42,12.43,3.56l.52-.52h0l.73-.73h0L48.72,17S50.15,16.15,48.44,14.73Z" fill="#313e4c"/><path d="M42.93,8.83A39,39,0,0,1,31.93,5a39,39,0,0,1-11,3.83,20,20,0,0,1-5.5,5.88,1.651,1.651,0,0,0-.3,2.315c.04.05.082.1.127.145l4.22,4.24c2.69-2.14,7.24-3.56,12.43-3.56s9.74,1.42,12.43,3.56l4.24-4.23a1.639,1.639,0,0,0,0-2.319,1.523,1.523,0,0,0-.16-.141A20.917,20.917,0,0,1,42.93,8.83Z" fill="none" stroke="#333" stroke-linecap="round" stroke-linejoin="round" stroke-width="1.5"/><path d="M33.65,13.85,31.93,15l-1.72-1.15a2.869,2.869,0,0,1-1.28-2.39V9a5,5,0,0,0,2.75-.83L31.93,8l.25.17A5,5,0,0,0,34.93,9v2.47A2.859,2.859,0,0,1,33.65,13.85Z" fill="#ead4ad"/><path d="M31.93,8l-.25.17A5,5,0,0,1,28.93,9v2.47a2.851,2.851,0,0,0,1.22,2.33A6.491,6.491,0,0,0,32.6,8.72V8.39l-.4-.22Z" fill="#f2e1c0"/><path d="M33.65,13.85,31.93,15l-1.72-1.15a2.869,2.869,0,0,1-1.28-2.39V9a5,5,0,0,0,2.75-.83L31.93,8l.25.17A5,5,0,0,0,34.93,9v2.47A2.859,2.859,0,0,1,33.65,13.85Z" fill="none" stroke="#333" stroke-linecap="round" stroke-linejoin="round"/><path d="M19.21,22.06c2.53-2.39,7.28-4,12.72-4s10.22,1.62,12.72,4c-2.53,2.39-7.28,4-12.72,4S21.76,24.41,19.21,22.06Z" fill="#333"/><path d="M32,58.94c1.56,0,3.12,0,4.67-.15,1.59-2.65,5.27-9.58,5.27-16.65l-1-.2-1.33-3a25.642,25.642,0,0,1-7.67,7,26.365,26.365,0,0,1-7.71-7l-1.29,3-1,.2c0,7.06,3.68,14,5.27,16.65A47.9,47.9,0,0,0,32,58.94Z" fill="#fff" stroke="#333" stroke-linecap="round" stroke-linejoin="round" stroke-width="1.5"/><path d="M32,58.94c1.11,0,2.23,0,3.34-.06-1-3.3-2.39-7.94-2.39-7.94H31l-2.38,7.93A31.447,31.447,0,0,0,32,58.94Z" fill="#3467a8" stroke="#333" stroke-miterlimit="10" stroke-width="1.5"/><polygon fill="#3467a8" points="31.95 45.94 29.28 49.28 30.95 50.94 32.95 50.94 34.53 49.16 31.95 45.94" stroke="#343433" stroke-linecap="round" stroke-linejoin="round" stroke-width="1.5"/><path d="M32.24,50.94l.21,3a.5.5,0,1,1-1,.06v-.07l.21-3a.29.29,0,0,1,.309-.27h0A.31.31,0,0,1,32.24,50.94Z" fill="#343433"/><path d="M24.24,38.94a26.207,26.207,0,0,0,7.71,7l-4,5c-3-3-5-7-5-9Z" fill="#fff" stroke="#333" stroke-linecap="round" stroke-linejoin="round" stroke-width="1.5"/><path d="M39.62,38.94a25.642,25.642,0,0,1-7.67,7l4,5c3-3,5-7,5-9Z" fill="#fff" stroke="#333" stroke-linecap="round" stroke-linejoin="round" stroke-width="1.5"/><path d="M43.12,58l5.75-5-2-3,2.08-2-3-5-4-.8c-.06,6-3.44,13.1-5.36,16.66A62.121,62.121,0,0,0,43.12,58Z" fill="#3c495a" stroke="#343433" stroke-linejoin="round" stroke-width="1.5"/><path d="M15,53l5.74,5a59.8,59.8,0,0,0,6.55.78C25.4,55.23,22,48.09,22,42.14l-4,.8-3,5L17,50Z" fill="#3c495a" stroke="#343433" stroke-linejoin="round" stroke-width="1.5"/><circle cx="27.42" cy="26.74" fill="#333" r="0.65"/><circle cx="36.38" cy="26.74" fill="#333" r="0.65"/><line fill="none" stroke="#997059" stroke-linecap="round" stroke-miterlimit="10" stroke-width="0.75" x1="31.91" x2="31.91" y1="31.73" y2="32.73"/><path d="M29.33,31.17l-1.87,1.42a1.508,1.508,0,0,0-.59,1.2v1.65" fill="none" stroke="#a0775c" stroke-linecap="round" stroke-miterlimit="10" stroke-width="0.75"/><path d="M34.36,31.17l1.87,1.42a1.508,1.508,0,0,1,.59,1.2v1.65" fill="none" stroke="#ab8166" stroke-linecap="round" stroke-miterlimit="10" stroke-width="0.75"/><line fill="none" stroke="#997059" stroke-linecap="round" stroke-miterlimit="10" stroke-width="0.75" x1="30.99" x2="32.99" y1="36.96" y2="36.96"/><line fill="none" stroke="#997059" stroke-linecap="round" stroke-miterlimit="10" stroke-width="0.75" x1="31.78" x2="32.03" y1="39.49" y2="39.49"/><path d="M33.27,33.58a2.828,2.828,0,0,0-1.18.13.607.607,0,0,1-.42,0,2.878,2.878,0,0,0-1.18-.13c-.67.1-.74.52-2.09,1.25l1.19.73a2.29,2.29,0,0,0,1.27.41h2.07a2.217,2.217,0,0,0,1.27-.41l1.23-.7C34.07,34.13,33.94,33.68,33.27,33.58Z" fill="#916953"/><path d="M35.42,34.86c-1,0-1.26-.39-2.24-.39a6.756,6.756,0,0,0-1.29.17,7.473,7.473,0,0,0-1.29-.17c-.94,0-1.15.36-2.21.36" fill="none" stroke="#674848" stroke-linecap="round" stroke-miterlimit="10" stroke-width="0.75"/><path d="M29.38,30.85a2.649,2.649,0,0,1,1.25.32h0a2.578,2.578,0,0,0,2.5,0h0a2.649,2.649,0,0,1,1.25-.32" fill="none" stroke="#674848" stroke-linecap="round" stroke-miterlimit="10" stroke-width="0.75"/></g></g></g><path d="M37.7,30.768a5.45,5.45,0,0,1,1.638,8.379c-.853,1-6.729,9.732-14.949-.012a5.452,5.452,0,0,1,1.653-8.361l4.526-2.345a2.841,2.841,0,0,1,2.618,0Z" fill="#fff"/><path d="M23.936,32.725a22.889,22.889,0,0,1-3.745-9.294" fill="#fff" stroke="#333" stroke-linecap="round" stroke-linejoin="round" stroke-width="1.5"/><path d="M40.064,32.725a22.889,22.889,0,0,0,3.745-9.294" fill="#fff" stroke="#333" stroke-linecap="round" stroke-linejoin="round" stroke-width="1.5"/><line fill="#fff" stroke="#333" stroke-linecap="round" stroke-linejoin="round" stroke-width="1.5" x1="23.102" x2="21.46" y1="35.491" y2="34.586"/><line fill="#fff" stroke="#333" stroke-linecap="round" stroke-linejoin="round" stroke-width="1.5" x1="40.898" x2="42.54" y1="35.491" y2="34.586"/><path d="M37.7,30.768l-4.514-2.339a2.841,2.841,0,0,0-2.618,0l-4.526,2.345A5.4,5.4,0,0,0,23.272,34.3a5.445,5.445,0,0,0,1.12,2.173c8.22,9.745,14.1,1.013,14.949.013a5.443,5.443,0,0,0,1.137-2.189A5.406,5.406,0,0,0,37.7,30.768Z" fill="#fff"/><path d="M37.7,30.768l-4.514-2.339a2.84,2.84,0,0,0-1.179-.3l-.02-.008V36.1c.035,2.059,2.2,1.609.865,4.11-2.047,3.841-7.082-2.89-7.082.41-.016.116,2.957,2.091,2.947,2.2,5.905,3.072,9.927-2.862,10.621-3.676A5.45,5.45,0,0,0,37.7,30.768Z" fill="#eee"/><path d="M23.3,34.2a19,19,0,0,0,8.714,2.273A17.259,17.259,0,0,0,40.454,34.2" fill="none" stroke="#ddd" stroke-miterlimit="10"/><path d="M23.3,36.424A19,19,0,0,0,32.01,38.7a17.259,17.259,0,0,0,8.444-2.273" fill="none" stroke="#ddd" stroke-miterlimit="10"/><path d="M37.7,30.768a5.45,5.45,0,0,1,1.638,8.379c-.853,1-6.729,9.732-14.949-.012a5.452,5.452,0,0,1,1.653-8.361l4.526-2.345a2.841,2.841,0,0,1,2.618,0Z" fill="none" stroke="#333" stroke-linejoin="round" stroke-width="1.5"/></g></svg>