<?xml version="1.0" ?><!DOCTYPE svg  PUBLIC '-//W3C//DTD SVG 1.1//EN'  'http://www.w3.org/Graphics/SVG/1.1/DTD/svg11.dtd'><svg height="16.6667in" style="shape-rendering:geometricPrecision; text-rendering:geometricPrecision; image-rendering:optimizeQuality; fill-rule:evenodd; clip-rule:evenodd" version="1.1" viewBox="0 0 16666.66 16666.66" width="16.6667in" xml:space="preserve" xmlns="http://www.w3.org/2000/svg" xmlns:xlink="http://www.w3.org/1999/xlink" xmlns:xodm="http://www.corel.com/coreldraw/odm/2003"><defs><style type="text/css">
   <![CDATA[
    .fil0 {fill:none}
    .fil11 {fill:#FEFEFE}
    .fil3 {fill:#F5875E}
    .fil2 {fill:#F5AD7E}
    .fil8 {fill:#F2937B}
    .fil4 {fill:#EA5052}
    .fil9 {fill:#B44A50}
    .fil5 {fill:#B07E5F}
    .fil12 {fill:#986C52}
    .fil7 {fill:#723234}
    .fil14 {fill:#A5AAAB}
    .fil13 {fill:#764D3B}
    .fil6 {fill:#5D3B2F}
    .fil10 {fill:#49332C}
    .fil1 {fill:#6CAFDD}
   ]]>
  </style></defs><g id="Layer_x0020_1"><rect class="fil0" height="16666.66" width="16666.66" x="-0" y="-0"/><g id="_2101151212064"><path class="fil1" d="M8333.35 15771.34c3219.71,0 5845.86,-2625.97 5845.86,-5845.85 0,-3219.78 -2626.15,-5845.77 -5845.86,-5845.77 -3219.79,0 -5845.9,2625.99 -5845.9,5845.77 0,3219.88 2626.1,5845.85 5845.9,5845.85z"/><path class="fil2" d="M5338.79 6500.7c-13.25,-145.46 -608.18,-317.28 -806.53,158.65 -198.26,475.91 158.63,1150.16 832.9,1202.97 674.19,52.88 475.91,-65.98 475.91,-65.98l-502.29 -1295.65z"/><path class="fil2" d="M11342.3 6500.7c13.12,-145.46 608.06,-317.28 806.4,158.65 198.32,475.91 -158.65,1150.16 -832.91,1202.97 -674.18,52.88 -475.93,-65.98 -475.93,-65.98l502.43 -1295.65z"/><path class="fil2" d="M8333.35 15771.34l-5440.11 0c-62.96,-2781.8 2077.39,-4396.62 3915.08,-4999.24 149.16,-776.16 111.14,-1782.81 111.14,-1782.81l2827.78 0c0,0 -38.02,1006.65 110.97,1782.81 1837.86,602.63 3978.12,2217.44 3915.12,4999.24l-5439.98 0z"/><path class="fil3" d="M9747.25 8989.29c0,0 -7.6,199.65 -2.69,489.4 -537.15,1349.37 -2204.72,1501.18 -2823.48,56.11 6.82,-319.89 -1.61,-545.52 -1.61,-545.52 941.87,0 1885.83,0 2827.78,0z"/><path class="fil4" d="M13958.88 15771.34c64.3,-2747.06 -2093.38,-4356.08 -3977.51,-4976 -377.13,836.81 -2907.86,833.12 -3280.95,-4.98 -1887.74,616.4 -4057.07,2226.55 -3992.63,4980.98l11251.1 0z"/><path class="fil2" d="M8333.35 9706.23c-3508.03,84.22 -5279.14,-8566.34 0,-8344.71 5279.12,-221.63 3507.95,8428.94 0,8344.71z"/><path class="fil5" d="M5115.86 6048.32l185.16 -209.22c55.33,-62.61 1070.17,2340.21 1315.11,1843.44 606.73,-1230.59 2839.13,-1044.65 3293.9,-61.39 453.08,729.28 1487.15,-1698.13 1487.15,-2421.22 0,0 123.09,4.22 268.62,54.48 -118.87,1886.52 -1132.02,3865.46 -2554.65,4375.35 -2223.42,515.3 -3581.14,-1403.94 -3995.29,-3581.44z"/><path class="fil6" d="M5165.13 6340.83c-246.85,-1040.35 -365.94,-2291.24 -63.22,-3195.88 372.16,-1112.23 1801.15,-1776.08 3228.44,-1787.66 1370.99,-11.1 2740.5,586.99 3170.81,1617.84 381.04,912.98 262.95,2258.59 0.39,3365.7 -385.26,-584.29 -548.43,-1625.57 -514.62,-2255.14 51.42,-957.82 -1278.62,-1460.19 -2653.58,-1502.88 -1375.11,42.69 -2705.09,545.06 -2653.66,1502.88 33.8,629.56 -129.37,1670.85 -514.56,2255.14z"/><path class="fil6" d="M9765.1 1726.48c614.86,644.21 756.72,953.76 1093.31,1213.4 157.33,121.46 -605.45,460.66 -1049.02,317.35 49.73,122.55 324.78,408.72 314.22,413.78 -305.64,147.53 -1326,88.89 -1989.15,-293.45 7.67,117.18 39.93,321.34 144.77,396.14 30.35,21.77 -336.14,-7.67 -445.65,-28.28 -609.04,-114.49 -1777.38,-703.06 -1874.55,-1650.01 309,-1322.15 2533.03,-1702.89 3806.07,-368.92z"/><path class="fil7" d="M8022.66 12240.56c0,-21.07 17.01,-38 38.02,-38 21.07,0 38.02,16.92 38.02,38l0 1376.57c0,21.03 -16.94,38.02 -38.02,38.02 -21,0 -38.02,-16.99 -38.02,-38.02l0 -1376.57z"/><path class="fil7" d="M8346.45 12652.28c76.1,0 138.25,-59.33 138.25,-132.19 0,-72.76 -62.15,-132 -138.25,-132 -76.19,0 -138.25,59.24 -138.25,132 0,72.86 62.06,132.19 138.25,132.19z"/><path class="fil7" d="M8346.45 13414.3c76.1,0 138.25,-59.26 138.25,-132.15 0,-72.71 -62.15,-132.06 -138.25,-132.06 -76.19,0 -138.25,59.35 -138.25,132.06 0,72.89 62.06,132.15 138.25,132.15z"/><path class="fil8" d="M6767.26 6671.45c179.01,137.49 186.91,338.81 17.46,449.63 -169.38,110.83 -451.93,89.29 -630.95,-48.12 -179.03,-137.49 -186.76,-338.74 -17.4,-449.65 169.36,-110.81 451.86,-89.27 630.89,48.14z"/><path class="fil8" d="M9918.91 6671.45c-179.03,137.49 -186.85,338.81 -17.4,449.63 169.36,110.83 451.78,89.29 630.89,-48.12 179.03,-137.49 186.92,-338.74 17.47,-449.65 -169.36,-110.81 -451.86,-89.27 -630.96,48.14z"/><path class="fil7" d="M4339.2 14138.27c0.24,-31.39 25.83,-56.63 57.26,-56.33 31.35,0.18 56.55,25.83 56.33,57.18l-14.03 1574.06c-0.24,31.44 -25.74,56.7 -57.24,56.48 -31.35,-0.3 -56.63,-25.92 -56.33,-57.33l14.01 -1574.07z"/><path class="fil7" d="M12173.53 14138.27c0.22,-31.39 25.89,-56.63 57.24,-56.33 31.41,0.18 56.7,25.83 56.48,57.18l-14.03 1574.06c-0.31,31.44 -25.9,56.7 -57.33,56.48 -31.33,-0.3 -56.55,-25.92 -56.31,-57.33l13.95 -1574.07z"/><path class="fil9" d="M8328.6 11470.75c40.84,321.74 -677.16,1167.59 -853.13,1139.98 -429.7,-67.45 -966.03,-1224.83 -1002.5,-1780.21 -19.25,-293.06 438.59,-973.61 437.98,-963.11l-32.35 552.12c-18.92,322.56 579.39,849.65 1450,1051.23z"/><path class="fil9" d="M8331.96 11470.75c-40.84,321.74 677.18,1167.59 853.13,1139.98 429.72,-67.45 966.11,-1224.83 1002.5,-1780.21 19.25,-293.06 -432.46,-989.7 -431.92,-979.21l32.41 552.05c18.86,322.63 -585.36,865.81 -1456.13,1067.39z"/><path class="fil6" d="M6463.84 2679.08c37.47,106.84 77.8,201.32 128.61,302.57 116.94,223.15 236.81,397.29 416.06,574.63 16.85,15.16 226.54,234.97 228.84,256.13 -47.05,82.38 -290.15,-57.57 -340.26,-82.4 -263.95,-129.82 -445.28,-330.93 -604.69,-573.63 -73.8,-119.09 -127.28,-225.87 -174.18,-357.67 -62.85,-211.14 -160.96,-461.59 87.13,-448.5 214.59,-13.8 173.57,68.28 258.5,328.86z"/><path class="fil10" d="M7292.07 4677.79c-11.58,-5.13 -23.37,-9.89 -35.35,-14.47 -137.1,-49.44 -253.35,-62.85 -401.35,-52.12 -145.07,15.32 -253.35,48.12 -374.89,117.48 -56.72,36.54 -278.2,215.87 -215.44,282.02 25.59,7.06 246.24,-105.6 311.07,-126.67 100.86,-29.83 182.55,-41.08 289.32,-38.95 99.54,4.46 174.58,19.01 265.23,53.96 2.54,0.54 18.94,7.89 22.37,9.43 185,89.98 168.3,147.74 294.45,61.24 194.37,-103.47 -5.67,-214.05 -155.41,-291.93z"/><path class="fil10" d="M9374.55 4677.79c11.64,-5.13 23.37,-9.89 35.41,-14.47 137.04,-49.44 253.22,-62.85 401.35,-52.12 145.07,15.32 253.28,48.12 374.91,117.48 56.7,36.54 278.11,215.87 215.35,282.02 -25.59,7.06 -246.24,-105.6 -311,-126.67 -100.84,-29.83 -182.55,-41.08 -289.39,-38.95 -99.63,4.46 -174.51,19.01 -265.31,53.96 -2.37,0.54 -18.77,7.89 -22.31,9.43 -185,89.98 -168.3,147.74 -294.43,61.24 -194.37,-103.47 5.67,-214.05 155.41,-291.93z"/><path class="fil11" d="M7423.42 7405.49c323.34,-4.06 645.38,-6.06 967.48,-6.06 322.11,0 644.15,2 967.48,6.06 0,507.26 -500.3,688.44 -965.79,688.44l-3.45 0c-465.51,0 -965.73,-181.18 -965.73,-688.44z"/><path class="fil12" d="M8168.42 8396.11c-18.01,-10.49 -24.07,-33.8 -13.49,-51.81 10.58,-18.01 33.8,-24.05 51.81,-13.56 52.33,30.65 118.94,45.97 185.61,45.97 66.52,0 132.04,-15.25 182.09,-45.67 18.01,-10.8 41.23,-5.06 52.12,12.8 10.8,17.86 5.06,41.17 -12.8,52.03 -62.54,37.95 -142.1,56.87 -221.41,56.87 -79.16,0 -159.48,-18.86 -223.93,-56.64z"/><path class="fil3" d="M8304.68 6709.38c-20.99,0 -38,-17.1 -38,-38.02 0,-21.07 17.01,-38 38,-38 91.28,0 200.34,-0.93 284.63,-15.19 69.15,-11.8 120.11,-30.5 120.11,-62.15 0,-109.36 -110.83,-789.52 -111.14,-791.43 -3.28,-20.7 10.82,-40.08 31.5,-43.3 20.61,-3.39 40.02,10.8 43.3,31.41 0.39,2 112.36,689.28 112.36,803.31 0,80.25 -77.8,119.09 -183.61,137.04 -90.98,15.4 -203.34,16.31 -297.14,16.31z"/><path class="fil3" d="M11932.95 7034.94c0,21.07 -17.01,38.08 -38.08,38.08 -20.94,0 -38.02,-17.01 -38.02,-38.08 0,-115.48 -19.92,-188.15 -52.05,-227.69 -19.31,-23.59 -43.75,-34.56 -70.8,-35.17 -31.04,-0.69 -66.61,10.95 -103.54,31.87 -99.78,56.48 -203.1,176.42 -260.19,307.03 -27.52,62.91 -51.27,127.52 -64.91,176.42 58.48,-40.62 122.91,-56.79 177.27,-51.35 30.87,3.15 59,13.1 81.92,29.59 24.14,17.31 42.08,41.45 51.12,71.65 15.56,52.12 3.52,122.24 -52.51,205.86 -11.64,17.4 -35.24,21.98 -52.57,10.43 -17.47,-11.67 -22.07,-35.26 -10.41,-52.66 41.84,-62.39 52.24,-109.9 42.69,-141.86 -4.06,-13.56 -12.04,-24.29 -22.61,-31.87 -11.88,-8.61 -27.44,-13.88 -45.07,-15.64 -48.88,-4.98 -110.67,16.4 -162.15,68.21 -13.8,13.86 -26.74,21.68 -38.63,24.2 -30.59,6.6 -48.3,-6.82 -54.96,-36.69l-0.45 -2c-2.22,-11.34 -1.67,-26.44 1.15,-44.38 8.58,-54.09 41.08,-149.83 80.62,-240.18 63.39,-144.92 179.33,-278.81 292.23,-342.72 48.43,-27.35 97.24,-42.69 142.47,-41.69 49.36,1.22 93.57,20.68 128.13,63.22 42.77,52.5 69.36,141.16 69.36,275.44z"/><path class="fil3" d="M4809.77 7034.94c0,21.07 -17.01,38.08 -38.02,38.08 -20.98,0 -38.08,-17.01 -38.08,-38.08 0,-134.28 26.68,-222.93 69.36,-275.44 34.63,-42.54 78.77,-62 128.06,-63.22 45.36,-1 94.11,14.34 142.54,41.69 112.81,63.91 228.93,197.8 292.3,342.72 39.54,90.35 72.04,186.09 80.62,240.18 2.85,17.94 3.39,33.04 1.09,44.38l-0.46 2c-6.6,29.87 -24.37,43.3 -54.87,36.69 -11.88,-2.52 -24.83,-10.34 -38.71,-24.2 -51.48,-51.81 -113.33,-73.19 -162.17,-68.21 -17.7,1.76 -33.17,7.04 -45.06,15.64 -10.65,7.58 -18.56,18.31 -22.62,31.87 -9.49,31.96 0.94,79.47 42.78,141.86 11.65,17.4 6.89,41 -10.43,52.66 -17.47,11.56 -40.93,6.97 -52.66,-10.43 -56,-83.61 -67.97,-153.74 -52.4,-205.86 8.95,-30.2 26.89,-54.33 51.12,-71.65 22.9,-16.49 51.03,-26.44 81.83,-29.59 54.42,-5.43 118.87,10.73 177.27,51.35 -13.64,-48.9 -37.41,-113.51 -64.91,-176.42 -57.09,-130.61 -160.32,-250.54 -260.19,-307.03 -36.87,-20.92 -72.43,-32.56 -103.54,-31.87 -27.13,0.61 -51.42,11.58 -70.82,35.17 -32.02,39.54 -52.03,112.2 -52.03,227.69z"/><path class="fil10" d="M7292.07 5569.39c131.19,94.59 160.63,277.52 65.76,408.41 -94.8,130.89 -278.05,160.32 -409.26,65.76 -131.13,-94.74 -160.54,-277.5 -65.76,-408.48 94.8,-130.91 278.13,-160.26 409.26,-65.69z"/><path class="fil10" d="M9374.64 5569.39c-131.21,94.59 -160.65,277.52 -65.91,408.41 94.96,130.89 278.11,160.32 409.33,65.76 131.13,-94.74 160.63,-277.5 65.83,-408.48 -94.87,-130.91 -278.11,-160.26 -409.24,-65.69z"/><path class="fil13" d="M6689.01 1646.07c4.22,-20.55 24.29,-33.65 44.82,-29.44 20.55,4.3 33.65,24.38 29.37,44.93 -78.79,374.37 22.07,710.88 217.48,999.5 252.61,373 662.78,666.97 1050.34,860.71 18.77,9.37 26.35,32.11 16.93,50.81 -9.28,18.79 -32.02,26.28 -50.72,16.94 -397.38,-198.65 -818.5,-500.92 -1079.21,-885.87 -206.31,-304.79 -312.61,-660.7 -229,-1057.6z"/><path class="fil13" d="M7010.51 1366.72c-2.61,-20.68 12.1,-39.69 32.87,-42.38 20.7,-2.61 39.71,12.19 42.38,32.89 37.93,298.97 279.26,656.02 612.95,982.5 355.6,348 814.89,659.46 1244.99,828.38 839.33,329.78 902.87,329.54 903.03,329.54 20.92,0.76 37.32,18.16 36.71,39.08 -0.63,20.92 -18.18,37.41 -39.02,36.63 -0.24,0 -77.25,-0.15 -928.4,-334.51 -439.28,-172.6 -907.92,-490.18 -1270.58,-844.94 -344.72,-337.44 -594.7,-710.2 -634.93,-1027.18z"/><path class="fil13" d="M7776.05 1199.82c-4.91,-20.31 7.58,-40.86 27.96,-45.75 20.31,-4.91 40.86,7.58 45.69,27.96 62.85,255.98 276.11,530.42 562.98,765.62 294.15,241.09 664.61,439.83 1029.79,534.94 732.43,190.52 801.55,200.41 801.77,200.47 20.7,3.45 34.72,23.01 31.2,43.62 -3.37,20.68 -22.98,34.63 -43.69,31.26 -0.22,0 -71.49,-10.28 -808.29,-202.01 -375.92,-97.87 -756.8,-302.12 -1058.99,-549.81 -298.73,-244.92 -521.59,-533.7 -588.42,-806.29z"/><path class="fil14" d="M7540.84 7757.49c-21.01,0 -38.08,-17.1 -38.08,-38.02 0,-21.07 17.07,-38.02 38.08,-38.02l1700.13 0c21.01,0 38.08,16.94 38.08,38.02 0,20.92 -17.07,38.02 -38.08,38.02l-1700.13 0z"/></g></g></svg>