<?xml version="1.0" ?><!DOCTYPE svg  PUBLIC '-//W3C//DTD SVG 1.1//EN'  'http://www.w3.org/Graphics/SVG/1.1/DTD/svg11.dtd'><svg height="16.6667in" style="shape-rendering:geometricPrecision; text-rendering:geometricPrecision; image-rendering:optimizeQuality; fill-rule:evenodd; clip-rule:evenodd" version="1.1" viewBox="0 0 16666.66 16666.66" width="16.6667in" xml:space="preserve" xmlns="http://www.w3.org/2000/svg" xmlns:xlink="http://www.w3.org/1999/xlink" xmlns:xodm="http://www.corel.com/coreldraw/odm/2003"><defs><style type="text/css">
   <![CDATA[
    .fil0 {fill:none}
    .fil3 {fill:#F9A753}
    .fil1 {fill:#F48B92}
    .fil5 {fill:#F5875E}
    .fil13 {fill:#FBCB2A}
    .fil4 {fill:#F5AD7E}
    .fil7 {fill:#EC836E}
    .fil8 {fill:#E88672}
    .fil9 {fill:#E5E6E5}
    .fil6 {fill:#9D433D}
    .fil10 {fill:#56465B}
    .fil14 {fill:#2D2E2F}
    .fil11 {fill:#403248}
    .fil2 {fill:#302839}
    .fil12 {fill:#2C2C3C}
    .fil15 {fill:#24252F}
   ]]>
  </style></defs><g id="Layer_x0020_1"><rect class="fil0" height="16666.66" width="16666.66" x="-0" y="-0"/><g id="_2101154621552"><path class="fil1" d="M8333.36 15629.49c3030.36,0 5502.05,-2471.64 5502.05,-5501.99 0,-3030.58 -2471.7,-5502.14 -5502.05,-5502.14 -3030.44,0 -5502.1,2471.55 -5502.1,5502.14 0,3030.36 2471.66,5501.99 5502.1,5501.99z"/><path class="fil2" d="M6389.65 4618.65c151.83,414.24 266.15,3530.01 -342.76,3766.16 -2098.79,814.06 -1833.79,3507.5 -64.2,4525.77 3340.66,1922.28 3867.5,-8921.71 3839.67,-9454.9 -21.51,-413.53 410.34,-214.3 385.6,-527.93 -113.89,-1441.26 -1353.09,-2042.18 -2255.31,-1920.63 -1255,168.99 -2276.8,1665.13 -1562.99,3611.51z"/><path class="fil3" d="M8347.42 3653.39c518.75,0 941.81,-358.92 941.81,-799.13 0,-440.07 -423.06,-799.07 -941.81,-799.07 -518.71,0 -941.83,359 -941.83,799.07 0,440.22 423.12,799.13 941.83,799.13z"/><path class="fil4" d="M9412.65 10657.14l-35.13 -1153.57 -2089.92 0 -76.9 1152.37c-33.9,509.39 -1128.83,682.2 -1557.23,942.38 -1272.02,772.59 -2377.93,2093.23 -2334.29,4022.95l10033.82 0c41.34,-1827.14 -948.09,-3108.4 -2133.27,-3895.29 -576.47,-382.65 -1794.67,-659.93 -1807.08,-1068.84z"/><path class="fil5" d="M7224.13 10455.11c644.62,591.7 1529.75,608.29 2183.38,36.93l-30 -988.47 -2089.92 0 -63.46 951.54z"/><path class="fil4" d="M8283.22 10395.39c-3044.71,98.39 -4581.9,-7941.88 0,-7729.52 17.95,-0.94 35.04,-0.45 52.87,-1.02 17.81,0.57 34.76,0.08 52.79,1.02 4581.96,-212.36 3044.79,7827.91 0,7729.52 -17.75,0.57 -35.19,-0.51 -52.79,-0.51 -17.69,0 -35.07,1.08 -52.87,0.51z"/><path class="fil4" d="M5567.86 7031.07c-12.2,-134.11 -560.83,-292.57 -743.74,146.34 -182.85,438.93 146.35,1060.68 768.11,1109.45 621.78,48.68 438.93,-60.95 438.93,-60.95l-463.3 -1194.83z"/><path class="fil4" d="M11104.33 7031.07c12.19,-134.11 560.75,-292.57 743.66,146.34 182.93,438.93 -146.28,1060.68 -768.05,1109.45 -621.76,48.68 -438.9,-60.95 -438.9,-60.95l463.3 -1194.83z"/><path class="fil6" d="M7501.82 8748.36c557.52,-6.99 1110.96,-6.99 1668.48,0 -413.39,801.16 -1255.09,801.16 -1668.48,0z"/><path class="fil7" d="M8767.07 9216.62c-272.51,176.72 -589.45,176.72 -862.11,0 272.66,-176.72 589.6,-176.72 862.11,0z"/><path class="fil8" d="M7061.25 7905.66c168.56,129.32 175.92,318.74 16.52,423.18 -159.43,104.32 -425.37,84.04 -593.93,-45.29 -168.5,-129.41 -175.78,-318.88 -16.38,-423.26 159.42,-104.3 425.29,-84.03 593.79,45.37z"/><path class="fil8" d="M9610.85 7905.66c-168.5,129.32 -175.86,318.74 -16.44,423.18 159.4,104.32 425.35,84.04 593.85,-45.29 168.56,-129.41 175.86,-318.88 16.44,-423.26 -159.48,-104.3 -425.27,-84.03 -593.85,45.37z"/><path class="fil5" d="M5080.17 7496.81c0,19.77 -15.93,35.78 -35.76,35.78 -19.69,0 -35.78,-16.01 -35.78,-35.78 0,-126.36 25.03,-209.82 65.2,-259.22 32.53,-40.04 74.22,-58.44 120.59,-59.52 42.63,-0.94 88.57,13.41 134.17,39.24 106.18,60.15 215.38,186.17 275.03,322.5 37.23,85.18 67.82,175.2 75.9,226.14 2.66,16.87 3.17,31.16 1,41.75l-0.37 1.8c-6.26,28.22 -23,40.83 -51.63,34.64 -11.26,-2.39 -23.45,-9.81 -36.43,-22.88 -48.48,-48.68 -106.69,-68.88 -152.63,-64.18 -16.67,1.66 -31.3,6.77 -42.41,14.7 -10.02,7.22 -17.46,17.24 -21.29,30.02 -8.93,30.08 0.8,74.87 40.18,133.58 10.96,16.38 6.56,38.6 -9.81,49.48 -16.35,10.98 -38.5,6.65 -49.54,-9.73 -52.65,-78.76 -63.92,-144.7 -49.34,-193.73 8.51,-28.5 25.31,-51.16 48.11,-67.45 21.49,-15.5 48.03,-24.96 77.11,-27.91 51.13,-5.13 111.8,10.1 166.84,48.31 -12.84,-45.86 -35.21,-106.81 -61.09,-165.96 -53.73,-122.91 -150.98,-235.79 -244.97,-288.95 -34.68,-19.77 -68.15,-30.67 -97.37,-30.02 -25.54,0.57 -48.48,10.81 -66.66,33.19 -30.22,37.15 -49.05,105.61 -49.05,214.22z"/><path class="fil5" d="M8287.99 8384.88c-19.83,0 -35.78,-16.07 -35.78,-35.76 0,-19.77 15.95,-35.78 35.78,-35.78 85.61,0 187.82,-0.94 266.89,-16.38 65.7,-12.9 114.03,-34.56 114.03,-72.85 0,-119.3 -104.44,-858.2 -104.73,-860.31 -2.68,-19.55 10.96,-37.64 30.51,-40.32 19.46,-2.66 37.5,10.9 40.18,30.5 0.35,2.11 105.67,746.85 105.67,870.12 0,82.87 -72.85,123.7 -171.96,143.04 -85.83,16.72 -191.95,17.73 -280.59,17.73z"/><path class="fil5" d="M11648.12 7496.81c0,19.77 -16.09,35.78 -35.86,35.78 -19.75,0 -35.76,-16.01 -35.76,-35.78 0,-108.61 -18.83,-177.07 -49.05,-214.22 -18.18,-22.37 -41.06,-32.61 -66.57,-33.19 -29.3,-0.65 -62.77,10.24 -97.45,30.02 -93.93,53.16 -191.24,166.04 -244.89,288.95 -25.91,59.15 -48.26,120.1 -61.09,165.96 54.96,-38.21 115.62,-53.45 166.76,-48.31 29.14,2.94 55.61,12.41 77.11,27.91 22.8,16.3 39.67,38.95 48.11,67.45 14.64,49.03 3.31,114.97 -49.34,193.73 -11.04,16.38 -33.19,20.71 -49.54,9.73 -16.31,-10.88 -20.71,-33.1 -9.81,-49.48 39.38,-58.7 49.2,-103.5 40.18,-133.58 -3.76,-12.78 -11.27,-22.8 -21.2,-30.02 -11.19,-7.93 -25.76,-13.04 -42.43,-14.7 -45.94,-4.7 -104.22,15.5 -152.61,64.18 -13.07,13.07 -25.25,20.49 -36.44,22.88 -28.7,6.19 -45.43,-6.42 -51.65,-34.64l-0.43 -1.8c-2.09,-10.59 -1.59,-24.88 1,-41.75 8.08,-50.93 38.67,-140.96 75.9,-226.14 59.64,-136.34 168.85,-262.35 275.11,-322.5 45.57,-25.82 91.46,-40.18 134.15,-39.24 46.39,1.08 87.94,19.48 120.53,59.52 40.18,49.4 65.28,132.86 65.28,259.22z"/><path class="fil5" d="M8126.77 9667.8c-17.01,-9.94 -22.72,-31.8 -12.76,-48.83 9.96,-16.95 31.8,-22.65 48.83,-12.7 49.11,28.79 111.88,43.2 174.63,43.2 62.67,0 124.27,-14.27 171.44,-42.92 16.89,-10.17 38.74,-4.83 48.91,11.98 10.24,16.89 4.85,38.81 -11.96,48.97 -58.87,35.72 -133.6,53.61 -208.39,53.61 -74.51,0 -150.12,-17.75 -210.7,-53.32z"/><path class="fil9" d="M8081.47 8986.03c311.09,-1.23 621.9,-0.23 933.73,3.02 56.25,-70.03 108.49,-150.24 155.09,-240.7 -291.34,-3.68 -581.52,-5.42 -871.86,-5.19 -265.21,0.06 -530.44,1.8 -796.62,5.19 46.68,90.46 98.84,170.67 155.17,240.7 141.65,-1.51 283.1,-2.45 424.49,-3.02z"/><path class="fil10" d="M5280.71 11205.78c6.99,18.46 -2.25,39.01 -20.71,46.09 -18.38,7.13 -39.15,-2.17 -46.17,-20.63 -107.61,-281.59 -157.52,-647.58 -118.51,-992.8 33.9,-299.56 134.74,-584.4 322.87,-786.94 397.72,-428.4 432.48,-446.15 432.63,-446.15 17.18,-9.87 39.03,-3.82 48.83,13.27 9.75,17.11 3.82,39.03 -13.33,48.85 -0.08,0 -25.68,12.56 -415.9,432.63 -176.66,190.36 -271.72,460.7 -304.04,746.2 -37.72,333.89 10.39,687.64 114.34,959.5z"/><path class="fil5" d="M5482.09 6263.31c356.12,265.15 1818.41,515.15 3167.13,212.13 1348.63,-303.1 1704.66,-985.01 1704.66,-985.01 0,0 500.14,674.35 530.44,1197.14 30.3,522.74 454.65,-1803.26 -303.1,-2242.68 -757.59,-439.5 -4394.49,-439.5 -5099.14,1818.41z"/><path class="fil11" d="M5489.37 5398.46c157.76,-1638.89 971.48,-2963.56 2846.73,-2822.11 2067.78,-47.54 2902.89,1636.21 2921.01,3499.2 -91.17,-41.98 -183.65,-81.58 -277.07,-118.65 33.56,-261.61 -183.71,-1266.48 -364.11,-1093.87 -2514.1,2405.12 -5302.9,1224.5 -5208.99,1132.45 45.8,-45 76.39,-533.76 82.44,-597.02z"/><path class="fil11" d="M5646.19 7481.59c194.61,342.34 194.61,342.34 194.61,342.34 0,-4918.02 3673.63,-5371.16 4745.41,-2233.54 289.81,848.18 211.91,1348.43 211.91,2233.54 0,0 0,0 194.61,-342.34 372.13,-654.66 560.03,-1168.66 542.36,-1981.2 -11.27,-520.08 -111.02,-1034.43 -288.03,-1392.49 -1023.02,-2069 -4435.89,-2163.28 -5676.83,-282.98 -723.26,1095.96 -541.05,2571.26 75.96,3656.68z"/><path class="fil11" d="M10297.69 5269.28c-198.58,316.35 -744.83,914.53 -1412.47,978.65 285.78,-231.88 592.91,-528.56 772.59,-760.98 204.48,-264.35 275.31,-463.79 518.18,-716.39 103.44,-107.63 179.83,-65.65 183.79,-63.12 246.11,104.87 71.48,328.61 -62.09,561.83z"/><path class="fil10" d="M5928.81 5732.21c-19.41,-3.46 -32.19,-22 -28.71,-41.49 3.6,-19.32 22.2,-32.16 41.61,-28.63 454.65,83.46 1060.4,85.55 1694.93,-73.42 506.73,-126.95 1031.55,-356.83 1511.94,-730.47 1075.89,-836.8 1024.39,-1422.34 1024.33,-1424.16 -1.37,-19.55 13.48,-36.64 33.25,-37.93 19.69,-1.37 36.64,13.56 38.01,33.25 0.15,1.8 54.47,625.01 -1051.67,1485.31 -488.83,380.26 -1022.96,614.13 -1538.54,743.37 -645.07,161.65 -1261.71,159.28 -1725.15,74.16z"/><path class="fil10" d="M5802.94 5520.57c-19.63,-1.94 -33.98,-19.41 -32.1,-39.01 2.03,-19.55 19.47,-33.98 39.01,-32.02 345.87,34.96 849.72,-80.95 1347.92,-303.98 457.74,-204.91 909.42,-499.94 1228.61,-851.41 665.91,-733.21 687.76,-1128.93 687.84,-1130.08 1.43,-19.69 18.52,-34.47 38.22,-33.19 19.63,1.45 34.49,18.46 33.1,38.15 -0.06,1.23 -23.57,421.4 -706.31,1173.22 -325.96,358.98 -786.43,659.91 -1252.39,868.44 -508.95,227.86 -1026.21,346.08 -1383.9,309.87z"/><path class="fil10" d="M5803.79 5162.31c-18.4,6.99 -39.01,-2.31 -45.94,-20.78 -7,-18.46 2.31,-39.09 20.77,-46.02 370.47,-140.8 939.87,-466.61 1406.48,-931.57 334.32,-333.09 615.28,-737.46 730.82,-1195.48 4.76,-19.2 24.25,-30.81 43.37,-25.97 19.18,4.68 30.8,24.15 26.03,43.26 -119.08,472.11 -407.32,887.42 -749.94,1228.9 -474.34,472.66 -1054.12,804.26 -1431.58,947.66z"/><path class="fil12" d="M8363.86 13038.12c-1194.77,-18.61 -2400.87,-227.08 -3677.74,-700.03 -632.57,608.78 -1126.23,1400.05 -1300.28,2384.92l1432.65 898.26 7090.58 0 1371.8 -926.82c-177.09,-963.67 -660.73,-1740.65 -1279.83,-2341.5 -1261.86,462.5 -2455.18,666.76 -3637.19,685.17z"/><path class="fil13" d="M5559.19 9377.33c100.19,0 181.77,-234.93 181.77,-522.8 0,-288.03 -81.58,-522.82 -181.77,-522.82 -100.19,0 -181.83,234.79 -181.83,522.82 0,287.87 81.65,522.8 181.83,522.8z"/><path class="fil13" d="M11112.98 9377.33c100.19,0 181.77,-234.93 181.77,-522.8 0,-288.03 -81.58,-522.82 -181.77,-522.82 -100.19,0 -181.91,234.79 -181.91,522.82 0,287.87 81.72,522.8 181.91,522.8z"/><path class="fil13" d="M5559.19 8365.84c70.11,0 127.38,-59.58 127.38,-132.72 0,-72.99 -57.27,-132.57 -127.38,-132.57 -70.17,0 -127.38,59.58 -127.38,132.57 0,73.14 57.21,132.72 127.38,132.72z"/><path class="fil13" d="M11112.98 8365.84c70.19,0 127.38,-59.58 127.38,-132.72 0,-72.99 -57.19,-132.57 -127.38,-132.57 -70.17,0 -127.44,59.58 -127.44,132.57 0,73.14 57.27,132.72 127.44,132.72z"/><path class="fil5" d="M8126.77 9667.8c-17.01,-9.94 -22.72,-31.8 -12.76,-48.83 9.96,-16.95 31.8,-22.65 48.83,-12.7 49.11,28.79 111.88,43.2 174.63,43.2 62.67,0 124.27,-14.27 171.44,-42.92 16.89,-10.17 38.74,-4.83 48.91,11.98 10.24,16.89 4.85,38.81 -11.96,48.97 -58.87,35.72 -133.6,53.61 -208.39,53.61 -74.51,0 -150.12,-17.75 -210.7,-53.32z"/><path class="fil14" d="M7356.05 7025.8c123.48,89.08 151.26,261.18 61.89,384.39 -89.23,123.19 -261.69,150.81 -385.11,61.81 -123.5,-89.08 -151.18,-261.18 -61.97,-384.31 89.23,-123.21 261.7,-150.89 385.19,-61.89z"/><path class="fil14" d="M9316.14 7025.8c-123.5,89.08 -151.26,261.18 -61.98,384.39 89.23,123.19 261.7,150.81 385.19,61.81 123.42,-89.08 151.18,-261.18 61.95,-384.31 -89.29,-123.21 -261.76,-150.89 -385.17,-61.89z"/><path class="fil11" d="M7471.96 6243.05c-9.59,-4.76 -19.32,-9.24 -29.28,-13.57 -113.76,-46.6 -210.27,-59.13 -333.11,-49.05 -120.31,14.43 -210.19,45.31 -311.09,110.59 -47.11,34.33 -230.88,203.18 -178.74,265.35 21.28,6.65 204.34,-99.39 258.09,-119.22 83.67,-27.99 151.55,-38.74 240.13,-36.58 82.64,4.25 144.82,17.83 220.13,50.79 2.02,0.35 15.66,7.42 18.54,8.79 153.57,84.69 139.65,139.07 244.31,57.64 161.35,-97.24 -4.7,-201.46 -128.98,-274.74z"/><path class="fil11" d="M9200.06 6243.05c9.75,-4.76 19.48,-9.24 29.44,-13.57 113.74,-46.6 210.19,-59.13 333.09,-49.05 120.31,14.43 210.19,45.31 311.03,110.59 47.17,34.33 230.88,203.18 178.81,265.35 -21.26,6.65 -204.34,-99.39 -258.08,-119.22 -83.67,-27.99 -151.63,-38.74 -240.12,-36.58 -82.67,4.25 -144.84,17.83 -220.15,50.79 -2.02,0.35 -15.72,7.42 -18.54,8.79 -153.56,84.69 -139.71,139.07 -244.38,57.64 -161.28,-97.24 4.7,-201.46 128.9,-274.74z"/><path class="fil15" d="M4893.07 14139.41c0.22,-29.65 24.45,-53.31 54.04,-53.08 29.48,0.2 53.22,24.37 53.02,53.88l-12.13 1481.49c-0.29,29.51 -24.39,53.22 -53.88,53.08 -29.58,-0.29 -53.3,-24.37 -53.16,-54.02l12.1 -1481.35z"/><path class="fil15" d="M11684.19 14139.41c0.29,-29.65 24.37,-53.31 53.94,-53.08 29.5,0.2 53.24,24.37 53.02,53.88l-12.1 1481.49c-0.22,29.51 -24.39,53.22 -53.9,53.08 -29.57,-0.29 -53.3,-24.37 -53.08,-54.02l12.12 -1481.35z"/></g></g></svg>