<?xml version="1.0" encoding="iso-8859-1"?>
<!-- Generator: Adobe Illustrator 15.1.0, SVG Export Plug-In . SVG Version: 6.00 Build 0)  -->
<!DOCTYPE svg PUBLIC "-//W3C//DTD SVG 1.1//EN" "http://www.w3.org/Graphics/SVG/1.1/DTD/svg11.dtd">
<svg version="1.1" id="Layer_1" xmlns="http://www.w3.org/2000/svg" xmlns:xlink="http://www.w3.org/1999/xlink" x="0px" y="0px"
	 width="128px" height="128px" viewBox="0 0 128 128" style="enable-background:new 0 0 128 128;" xml:space="preserve">
<g>
	<ellipse style="fill:#C2D5D8;" cx="64" cy="68" rx="64" ry="60"/>
	<g>
		<g>
			<defs>
				<path id="SVGID_1_" d="M0,0v68c0,33.137,28.654,60,64,60s64-26.863,64-60V0H0z"/>
			</defs>
			<clipPath id="SVGID_2_">
				<use xlink:href="#SVGID_1_"  style="overflow:visible;"/>
			</clipPath>
			<g style="clip-path:url(#SVGID_2_);">
				<path style="fill:#F5F5F5;" d="M110.877,117c-4.578-23-38.912-20-46.924-20s-42.346-3-46.924,20s18.313,31,18.313,31h28.611
					h28.611C92.564,148,115.455,140,110.877,117z"/>
				<ellipse style="fill:#E6E6E6;" cx="63.953" cy="97.5" rx="14" ry="5.5"/>
				<path style="fill:#E6CBC3;" d="M76.371,94.563h0.005l-3.423-10.646l-9-0.666l-9,0.666l-3.424,10.646h0.006
					c-0.051,0.146-0.082,0.295-0.082,0.443c0,2.206,5.597,3.993,12.5,3.993c6.902,0,12.5-1.787,12.5-3.993
					C76.453,94.857,76.422,94.709,76.371,94.563z"/>
				<path style="fill:#D9BFB8;" d="M76.371,94.563h0.005l-3.423-10.646l-9-0.666l-1.75,0.129l7.25,0.537l3.423,10.646h-0.005
					c0.051,0.146,0.082,0.295,0.082,0.443c0,2.016-4.678,3.677-10.75,3.95c0.572,0.025,1.154,0.043,1.75,0.043
					c6.902,0,12.5-1.787,12.5-3.993C76.453,94.857,76.422,94.709,76.371,94.563z"/>
				<path style="fill:#FFE1D9;" d="M90,41v-4c0-8.113-5.771-21-26-21S38,28.887,38,37v4c0,0-4,0.295-4,3v11.068
					C34,57.773,35,60,38,60c0,13.522,12.023,29,26,29s26-15.478,26-29c3,0,4-2.227,4-4.932V44C94,41.295,90,41,90,41z"/>
				<path style="fill:#F2D6CE;" d="M64,16c-0.512,0-1.007,0.014-1.5,0.029C81.512,16.654,87,29.092,87,37v4v19
					c0,13.036-11.175,27.883-24.5,28.936C62.997,88.975,63.497,89,64,89c13.977,0,26-15.478,26-29V41v-4C90,28.887,84.229,16,64,16z
					"/>
				<g>
					<path style="fill:#F5F5F5;" d="M90,38c-17.863-2.646-34.137-2.646-52,0c0-2,0-20.201,0-22.201c19.793-2.935,32.207-2.935,52,0
						C90,18.799,90,35,90,38z"/>
				</g>
				<path style="fill:#E6E6E6;" d="M90,18.799c-19.793-2.935-32.207-2.935-52,0c0,0.838,0,4.525,0,8.67
					C40.173,29.65,43.18,31,46.5,31c2.895,0,5.549-1.025,7.621-2.73C56.762,30.585,60.212,32,64,32s7.238-1.415,9.879-3.73
					C75.951,29.975,78.605,31,81.5,31c3.32,0,6.327-1.352,8.5-3.531C90,23.563,90,20.044,90,18.799z"/>
				<circle style="fill:#F5F5F5;" cx="64" cy="15" r="15"/>
				<circle style="fill:#F5F5F5;" cx="46.5" cy="17" r="12"/>
				<circle style="fill:#F5F5F5;" cx="81.5" cy="17" r="12"/>
				<path style="fill:#E6E6E6;" d="M81.5,5c-0.422,0-0.839,0.023-1.25,0.064C86.289,5.691,91,10.795,91,17
					s-4.711,11.309-10.75,11.936C80.661,28.977,81.078,29,81.5,29c6.627,0,12-5.373,12-12S88.127,5,81.5,5z"/>
				<circle style="fill:#FFFFFF;" cx="81.5" cy="9" r="4"/>
				<path style="fill:#FFFFFF;" d="M41.5,10c0,2.762,2.238,5,5,5c0.171,0,0.333-0.033,0.5-0.051V15c2,0,6-2,6-5c0,5,6,8,11,8
					c4.971,0,9-4.029,9-9c0-4.66-3.541-8.492-8.079-8.953C64.613,0.027,64.311,0,64,0c-5.02,0-9.45,2.475-12.173,6.259
					C50.361,5.531,48.729,5.104,47,5.029v0.021C46.833,5.033,46.671,5,46.5,5C43.738,5,41.5,7.238,41.5,10z"/>
				<path style="fill:#CC803D;" d="M64,60c-7-2-9,8-15,4c3,6,13,4,15,2c2,2,12,4,15-2C73,68,71,58,64,60z"/>
				<rect x="62.5" y="103" style="fill:#E6E6E6;" width="1" height="50"/>
				<circle style="fill:#242424;" cx="67" cy="108" r="2"/>
				<circle style="fill:#242424;" cx="67" cy="118" r="2"/>
				<circle style="fill:#242424;" cx="67" cy="128" r="2"/>
				<circle style="fill:#242424;" cx="67" cy="138" r="2"/>
			</g>
		</g>
	</g>
	<g>
		<g>
			<ellipse style="fill:#F5F5F5;" cx="54" cy="45" rx="4" ry="3"/>
			<circle style="fill:#242424;" cx="54" cy="45" r="2"/>
		</g>
		<g>
			<ellipse style="fill:#F5F5F5;" cx="74" cy="45" rx="4" ry="3"/>
			<circle style="fill:#242424;" cx="74" cy="45" r="2"/>
		</g>
	</g>
</g>
</svg>
