<?xml version="1.0" ?><svg id="Layer_1" style="enable-background:new 0 0 48 48;" version="1.1" viewBox="0 0 48 48" xml:space="preserve" xmlns="http://www.w3.org/2000/svg" xmlns:xlink="http://www.w3.org/1999/xlink"><style type="text/css">
	.st0{fill:#F9B17B;}
	.st1{fill:#F9AE7B;}
	.st2{opacity:0.5;}
	.st3{fill:#F69164;}
	.st4{fill:#603813;}
	.st5{fill:#3B2314;}
	.st6{fill:#FFFFFF;}
	.st7{fill:#009345;}
	.st8{fill:#F8B677;}
	.st9{fill:#8A5D3B;}
	.st10{fill:#A87C4F;}
	.st11{fill:#321B0F;}
	.st12{fill:#404041;}
	.st13{fill:#929497;}
	.st14{fill:#754C28;}
	.st15{fill:#009687;}
	.st16{fill:#C3996B;}
	.st17{fill:#FAAF40;}
	.st18{fill:#E89E3C;}
	.st19{fill:#D0D2D3;}
	.st20{fill:#58595B;}
	.st21{fill:#EAA476;}
	.st22{fill:#E29C75;}
	.st23{fill:#D5855B;}
	.st24{fill:#F05A28;}
	.st25{fill:#F6921E;}
	.st26{fill:#783340;}
	.st27{fill:#843A42;}
	.st28{fill:#6D6E70;}
	.st29{fill:#EE4036;}
	.st30{fill:#FDED16;}
	.st31{fill:#231F20;}
	.st32{fill:#885A3D;}
	.st33{fill:#5C3418;}
	.st34{fill:#C49291;}
	.st35{fill:#262261;}
	.st36{fill:#E6E7E8;}
</style><g><g><g><path class="st26" d="M36.61,23.71c0.65,0.91-0.32,1.8,0.26,3.25c0.52,1.3,1.61,1.34,1.99,2.77c0.14,0.53,0.18,1.23,0,1.69     c-0.95,2.44-10.07,3.22-11.61-0.04c-1.3-2.75,2.85-8.21,6.63-8.49C34.2,22.86,35.92,22.74,36.61,23.71z"/></g><g><g><path class="st0" d="M35.74,24.54H12.37c-1.29,0-2.34-1.05-2.34-2.34v-0.55c0-1.29,1.05-2.34,2.34-2.34h23.38      c1.29,0,2.34,1.05,2.34,2.34v0.55C38.09,23.49,37.04,24.54,35.74,24.54z"/></g><g><rect class="st1" height="5.39" width="5.94" x="21.2" y="32"/></g><g class="st2"><path class="st23" d="M24.73,27.44c-0.1-0.03-0.2-0.06-0.3-0.08c-0.65-0.02-1.3,0-1.95,0.05c-0.43,0.08-0.86,0.17-1.28,0.26      v6.58c0.88,0.26,1.6,0.36,2,0.41c0.38,0.05,0.81,0.08,1.3,0.06c0.42-0.01,0.81-0.05,1.14-0.11c0.3-0.04,0.85-0.13,1.53-0.34      c0-0.04,0-0.08,0-0.12v-6.34C26.32,27.79,25.5,27.67,24.73,27.44z"/></g><g><path class="st0" d="M25.59,33.16c-0.34,0.05-0.74,0.1-1.17,0.11c-0.5,0.01-0.94-0.02-1.33-0.06c-1.04-0.11-4.22-0.59-6.72-3.17      c-0.48-0.49-1.74-1.82-2.41-3.98c-0.28-0.91-0.44-1.88-0.44-2.89v-7.47c0-5.36,4.35-9.71,9.71-9.71h1.62      c5.36,0,9.71,4.35,9.71,9.71v7.47c-0.02,0.8-0.21,4.09-2.84,6.87C29.35,32.54,26.45,33.04,25.59,33.16z"/></g></g><g><path class="st9" d="M24.68,26.38c-0.02,0-0.03,0-0.05,0c-1.69-0.35-2.46-0.74-2.48-1.26c-0.02-0.35,0.29-0.55,0.62-0.77     c0.29-0.19,0.64-0.42,0.9-0.8c0.4-0.62,0.45-1.48,0.14-2.58c-0.04-0.13,0.04-0.26,0.16-0.29c0.13-0.03,0.26,0.04,0.29,0.16     c0.35,1.23,0.28,2.23-0.2,2.97c-0.31,0.46-0.72,0.74-1.03,0.94c-0.18,0.12-0.41,0.27-0.4,0.35c0,0.02,0.04,0.4,2.11,0.82     c0.13,0.03,0.21,0.15,0.18,0.28C24.89,26.3,24.79,26.38,24.68,26.38z"/></g><g><ellipse class="st11" cx="29.79" cy="21.98" rx="1.08" ry="1.69"/></g><g><ellipse class="st11" cx="18.92" cy="21.98" rx="1.08" ry="1.69"/></g><g><path class="st6" d="M25.58,28.49c-0.33,0.06-1.14,0.17-2.15,0c-0.75-0.12-1.36-0.35-1.82-0.57c0.11,0.15,1.14,1.42,2.9,1.4     c1.69-0.02,2.68-1.23,2.8-1.39C26.91,28.13,26.32,28.36,25.58,28.49z"/></g><g><path class="st26" d="M28.36,5.58c-0.06-0.19,0-2.73,1.56-3.18c1.56-0.45,5.26,1.04,5.65,2.6c0.39,1.56-1.49,3.12-1.49,3.12     L28.36,5.58z"/></g><g><path class="st27" d="M36.82,12.29c-0.54-1.83-1.66-3.04-2.35-3.78c-0.33-0.36-1.37-1.44-3.7-2.73C28.46,4.5,25.76,3,22,2.99     c-2.8-0.01-4.88,0.8-5.46,1.04c-0.3,0.12-1.71,0.72-3.31,1.95C12.3,6.68,11.15,7.56,10.3,8.9c-1.49,2.35-1.32,4.95-1.14,6.21     c0.02,0.71,0.22,2.16,1.18,3.57c1.48,2.18,3.78,3.21,5.12,2.3c0.78-0.53,1.07-1.59,0.89-2.81c0.43,0.08,0.88,0.12,1.35,0.12     c3,0,5.44-1.79,5.44-4c0-0.02,0-0.03,0-0.05c0.35,0.26,0.76,0.45,1.2,0.55c0,0,0.35,0.08,0.72,0.08c0.79,0,1.97-0.68,3-1.91     c0.09-0.02,0.24-0.04,0.41-0.06c0.6-0.05,1.06,0.07,2.58,0.48c0.23,0.06,0.41,0.11,0.54,0.15c0.08,1.12,0.45,4.06,2.56,5.8     c0.5,0.42,0.76,0.48,0.97,0.45C36.5,19.65,37.79,15.61,36.82,12.29z"/></g><g><path class="st27" d="M27.78,18.7c0.39,0.38,0.98-0.15,2.36-0.13c1.3,0.02,2.06,0.49,2.23,0.22c0.16-0.25-0.38-0.84-0.45-0.91     c-0.65-0.68-1.52-0.8-2.3-0.89c-0.9-0.1-1.41-0.16-1.75,0.19C27.49,17.58,27.44,18.37,27.78,18.7z"/></g><g><path class="st5" d="M30.63,21.43c-0.27,0-0.48-0.07-0.56-0.1c-0.12-0.05-0.18-0.19-0.13-0.31c0.05-0.12,0.19-0.18,0.31-0.13     c0.09,0.04,0.43,0.15,0.79-0.02c0.35-0.16,0.49-0.47,0.53-0.56c0.05-0.12,0.18-0.18,0.3-0.14c0.12,0.05,0.18,0.18,0.14,0.3     c-0.07,0.17-0.27,0.6-0.77,0.82C31.02,21.4,30.81,21.43,30.63,21.43z"/></g><g><path class="st5" d="M17.96,21.53c-0.18,0-0.39-0.03-0.6-0.13c-0.5-0.23-0.71-0.65-0.77-0.82c-0.05-0.12,0.02-0.26,0.14-0.3     c0.12-0.05,0.26,0.02,0.3,0.14c0.03,0.09,0.17,0.4,0.53,0.56c0.36,0.16,0.7,0.05,0.79,0.02c0.12-0.05,0.26,0.01,0.31,0.13     c0.05,0.12-0.01,0.26-0.13,0.31C18.44,21.46,18.23,21.53,17.96,21.53z"/></g></g><g><path class="st0" d="M35.52,38.3c-2.24-0.96-5.95-2.23-10.7-2.4c-4.69-0.17-8.44,0.79-10.74,1.58c-0.74,0.22-2.21,0.78-3.58,2.14    c-0.52,0.52-1.56,1.69-2.13,3.51c-0.25,0.81-0.39,1.66-0.39,2.55v0h32.05v0c-0.01-0.83-0.17-3.89-2.51-6.06    C36.85,38.99,36.13,38.57,35.52,38.3z"/></g><g><path class="st12" d="M9.7,40.42C9.23,41.04,8.72,41.9,8.38,43c-0.25,0.81-0.39,1.66-0.39,2.55v0h32.05v0    c-0.01-0.72-0.13-3.1-1.67-5.14H9.7z"/></g><g><path class="st28" d="M9.08,41.32c-0.28,0.49-0.54,1.06-0.74,1.72c-0.25,0.82-0.39,1.69-0.39,2.59v0h32.05v0    c-0.01-0.63-0.1-2.49-1.1-4.3H9.08z"/></g></g></svg>