<?xml version="1.0" ?><svg id="Layer_1" style="enable-background:new 0 0 48 48;" version="1.1" viewBox="0 0 48 48" xml:space="preserve" xmlns="http://www.w3.org/2000/svg" xmlns:xlink="http://www.w3.org/1999/xlink"><style type="text/css">
	.st0{fill:#F9B17B;}
	.st1{fill:#F9AE7B;}
	.st2{opacity:0.5;}
	.st3{fill:#F69164;}
	.st4{fill:#603813;}
	.st5{fill:#3B2314;}
	.st6{fill:#FFFFFF;}
	.st7{fill:#009345;}
	.st8{fill:#F8B677;}
	.st9{fill:#8A5D3B;}
	.st10{fill:#A87C4F;}
	.st11{fill:#321B0F;}
	.st12{fill:#404041;}
	.st13{fill:#929497;}
	.st14{fill:#754C28;}
	.st15{fill:#009687;}
	.st16{fill:#C3996B;}
	.st17{fill:#FAAF40;}
	.st18{fill:#E89E3C;}
	.st19{fill:#D0D2D3;}
	.st20{fill:#58595B;}
	.st21{fill:#EAA476;}
	.st22{fill:#E29C75;}
	.st23{fill:#D5855B;}
	.st24{fill:#F05A28;}
	.st25{fill:#F6921E;}
	.st26{fill:#783340;}
	.st27{fill:#843A42;}
	.st28{fill:#6D6E70;}
	.st29{fill:#EE4036;}
	.st30{fill:#FDED16;}
	.st31{fill:#231F20;}
	.st32{fill:#885A3D;}
	.st33{fill:#5C3418;}
	.st34{fill:#C49291;}
	.st35{fill:#262261;}
	.st36{fill:#E6E7E8;}
</style><g><g><path class="st31" d="M44.14,23.55c0-2.53-1.58-4.74-3.93-5.92c0.07-0.1,0.13-0.2,0.2-0.3c1.58-2.72-0.25-6.73-4.09-8.95    c-0.07-0.04-0.14-0.08-0.22-0.12c-0.14-1.81-1.41-3.64-3.42-4.63c-2.32-1.14-4.91-0.82-6.4,0.63c-0.12-0.13-0.25-0.25-0.4-0.37    c-1.54-1.22-3.71-1.07-4.99,0.29c-1.37-1.03-3.15-1.45-4.9-0.98c-2.38,0.64-4.01,2.73-4.22,5.11c-3.3,1.48-5.3,4.36-4.6,6.98    c0.2,0.74,0.59,1.39,1.14,1.94c-2.63,1.11-4.44,3.45-4.44,6.16c0,2.87,2.04,5.33,4.94,6.35c-0.55,0.81-0.87,1.76-0.87,2.79    c0,2.89,2.52,5.24,5.63,5.24c1.67,0,3.16-0.67,4.19-1.75c1.98,2.22,4.5,3.51,7.18,3.39c2.38-0.11,4.53-1.31,6.23-3.24    c1.03,1.03,2.5,1.68,4.13,1.68c3.11,0,5.63-2.35,5.63-5.24c0-1.11-0.37-2.15-1.01-2.99C42.43,28.47,44.14,26.18,44.14,23.55z"/></g><g><path class="st32" d="M35.73,23.76H12.35c-1.29,0-2.34-1.05-2.34-2.34v-0.55c0-1.29,1.05-2.34,2.34-2.34h23.38    c1.29,0,2.34,1.05,2.34,2.34v0.55C38.07,22.71,37.02,23.76,35.73,23.76z"/></g><g><rect class="st32" height="5.39" width="5.94" x="21.18" y="31.22"/></g><g class="st2"><path class="st33" d="M24.71,26.66c-0.1-0.03-0.2-0.06-0.3-0.08c-0.65-0.02-1.3,0-1.95,0.05c-0.43,0.08-0.86,0.17-1.28,0.26v6.58    c0.88,0.26,1.6,0.36,2,0.41c0.38,0.05,0.81,0.08,1.3,0.06c0.42-0.01,0.81-0.05,1.14-0.11c0.3-0.04,0.85-0.13,1.53-0.34    c0-0.04,0-0.08,0-0.12v-6.34C26.31,27.01,25.48,26.89,24.71,26.66z"/></g><g><path class="st32" d="M25.58,32.38c-0.34,0.05-0.74,0.1-1.17,0.11c-0.5,0.01-0.94-0.02-1.33-0.06c-1.04-0.11-4.22-0.59-6.72-3.17    c-0.48-0.49-1.74-1.82-2.41-3.98c-0.28-0.91-0.44-1.88-0.44-2.89v-7.47c0-5.36,4.35-9.71,9.71-9.71h1.62    c5.36,0,9.71,4.35,9.71,9.71v7.47c-0.02,0.8-0.21,4.09-2.84,6.87C29.33,31.76,26.44,32.26,25.58,32.38z"/></g><g><path class="st5" d="M24.67,25.6c-0.02,0-0.03,0-0.05,0c-1.69-0.35-2.46-0.74-2.48-1.26c-0.02-0.35,0.29-0.55,0.62-0.77    c0.29-0.19,0.64-0.42,0.9-0.8c0.4-0.62,0.45-1.48,0.14-2.58c-0.04-0.13,0.04-0.26,0.16-0.29c0.13-0.04,0.26,0.04,0.29,0.16    c0.35,1.23,0.28,2.23-0.2,2.97c-0.31,0.46-0.72,0.74-1.03,0.94c-0.18,0.12-0.41,0.27-0.4,0.35c0,0.04,0.08,0.4,2.11,0.82    c0.13,0.03,0.21,0.15,0.18,0.28C24.88,25.52,24.78,25.6,24.67,25.6z"/></g><g><ellipse class="st11" cx="29.78" cy="21.2" rx="1.08" ry="1.69"/></g><g><ellipse class="st11" cx="18.91" cy="21.2" rx="1.08" ry="1.69"/></g><g><path class="st6" d="M24.4,27.22c-0.98,0-1.92-0.04-2.81-0.09c0.11,0.15,1.14,1.42,2.9,1.4c1.69-0.02,2.68-1.23,2.8-1.39    C26.38,27.2,25.41,27.23,24.4,27.22z"/></g><g><path class="st5" d="M30.61,20.65c-0.27,0-0.48-0.07-0.56-0.1c-0.12-0.05-0.18-0.19-0.13-0.31c0.05-0.12,0.19-0.18,0.31-0.13    c0.09,0.04,0.43,0.15,0.79-0.02c0.35-0.16,0.49-0.47,0.53-0.56c0.05-0.12,0.18-0.18,0.3-0.14c0.12,0.05,0.18,0.18,0.14,0.3    c-0.07,0.17-0.27,0.6-0.77,0.82C31,20.62,30.79,20.65,30.61,20.65z"/></g><g><path class="st5" d="M17.95,20.75c-0.18,0-0.39-0.03-0.6-0.13c-0.5-0.23-0.71-0.65-0.77-0.82c-0.05-0.12,0.02-0.26,0.14-0.3    c0.12-0.05,0.26,0.01,0.3,0.14c0.03,0.09,0.18,0.4,0.53,0.56c0.36,0.16,0.7,0.06,0.79,0.02c0.12-0.05,0.26,0.01,0.31,0.13    c0.05,0.12-0.01,0.26-0.13,0.31C18.42,20.68,18.22,20.75,17.95,20.75z"/></g><g><path class="st34" d="M35.5,37.68c-2.24-0.96-5.95-2.23-10.7-2.4c-4.69-0.17-8.44,0.79-10.74,1.58c-0.74,0.22-2.21,0.78-3.58,2.14    c-0.52,0.52-1.56,1.69-2.13,3.51c-0.25,0.81-0.39,1.66-0.39,2.55v0h32.05v0c-0.01-0.83-0.17-3.89-2.51-6.06    C36.83,38.37,36.12,37.95,35.5,37.68z"/></g><g><path class="st31" d="M36.63,15.15c-0.22-0.84-0.77-1.51-1.47-1.89c0.33-0.57,0.52-1.3,0.52-2.09c0-1.87-1.09-3.38-2.43-3.38    c-0.18,0-0.35,0.03-0.52,0.08V4.94H16.02V8c-0.28-0.16-0.59-0.25-0.91-0.25c-1.34,0-2.43,1.51-2.43,3.38    c0,0.86,0.23,1.64,0.61,2.24c-0.97,0.47-1.63,1.43-1.63,2.54c0,1.58,1.34,2.86,2.99,2.86c1.41,0,2.58-0.93,2.9-2.18    c0.31,0.11,0.65,0.17,1,0.17c1.65,0,2.99-1.28,2.99-2.86c0-0.54-0.16-1.05-0.44-1.48c0.23,0.05,0.48,0.08,0.74,0.08    c0.87,0,1.62-0.33,1.9-0.79c0.15,0.09,0.33,0.14,0.52,0.14c0.24,0,0.46-0.08,0.64-0.22c0.23,0.36,0.62,0.71,1.13,0.96    c0.5,0.25,1,0.36,1.43,0.33c-0.09,0.45-0.08,0.93,0.04,1.41c0.42,1.6,2,2.56,3.53,2.16c0.01,0,0.03-0.01,0.04-0.01    c0.01,0.04,0.02,0.09,0.03,0.13c0.42,1.6,2,2.56,3.53,2.16C36.16,18.37,37.05,16.75,36.63,15.15z M28.25,11.44h0.01    C28.26,11.44,28.26,11.44,28.25,11.44C28.26,11.44,28.25,11.44,28.25,11.44z"/></g><g><path class="st34" d="M24.93,34.54c0,0.02,0,0.05,0,0.07v0.67h-1.47v-0.73h0v-0.01h-2.3v1.59h5.96v-1.59    C26.39,34.54,25.66,34.54,24.93,34.54z"/></g></g></svg>