<?xml version="1.0" encoding="iso-8859-1"?>
<!-- Generator: Adobe Illustrator 15.1.0, SVG Export Plug-In . SVG Version: 6.00 Build 0)  -->
<!DOCTYPE svg PUBLIC "-//W3C//DTD SVG 1.1//EN" "http://www.w3.org/Graphics/SVG/1.1/DTD/svg11.dtd">
<svg version="1.1" id="Layer_1" xmlns="http://www.w3.org/2000/svg" xmlns:xlink="http://www.w3.org/1999/xlink" x="0px" y="0px"
	 width="128px" height="128px" viewBox="0 0 128 128" style="enable-background:new 0 0 128 128;" xml:space="preserve">
<g>
	<g>
		<circle style="fill:#4AB8A1;" cx="64" cy="64" r="64"/>
		<g>
			<g>
				<defs>
					<circle id="SVGID_1_" cx="64" cy="64" r="64"/>
				</defs>
				<clipPath id="SVGID_2_">
					<use xlink:href="#SVGID_1_"  style="overflow:visible;"/>
				</clipPath>
				<g style="clip-path:url(#SVGID_2_);">
					<rect x="49.937" y="101.563" style="fill:#CCCCCC;" width="27.438" height="22.625"/>
					<polygon style="fill:#406A80;" points="104.656,106.375 80.469,97.875 45.437,97.875 20.25,105.375 14.25,136.125 
						62.953,136.125 111.656,136.125 					"/>
					<polygon style="fill:#395F73;" points="104.656,106.375 80.469,97.875 76.469,97.875 100.656,106.375 107.656,136.125 
						111.656,136.125 					"/>
					<path style="fill:#F5F5F5;" d="M75.01,94.424L62.953,93l-12.057,1.424c0,0-3.946,1.701-5.459,3.451
						c1.313,5.813,9.906,14,9.906,14L62.952,104l7.608,7.875c0,0,8.594-8.188,9.906-14C78.956,96.125,75.01,94.424,75.01,94.424z"/>
					<path style="fill:#E6CBC3;" d="M75.371,95.563h0.005l-3.423-10.646l-9-0.666l-9,0.666L50.53,95.563h0.005
						c-0.051,0.146-0.082,0.295-0.082,0.443c0,2.206,5.597,3.993,12.5,3.993c6.902,0,12.5-1.787,12.5-3.993
						C75.453,95.857,75.422,95.709,75.371,95.563z"/>
					<path style="fill:#D9BFB8;" d="M75.371,95.563h0.005l-3.423-10.646l-9-0.666l-1.75,0.129l7.25,0.537l3.423,10.646h-0.005
						c0.051,0.146,0.082,0.295,0.082,0.443c0,2.016-4.678,3.678-10.75,3.95c0.573,0.024,1.154,0.043,1.75,0.043
						c6.902,0,12.5-1.787,12.5-3.993C75.453,95.857,75.422,95.709,75.371,95.563z"/>
					<path style="fill:#FFE1D9;" d="M88.953,42V31.598c0-8.113-5.771-14.598-26-14.598c-20.229,0-26,6.484-26,14.598V42
						c0,0-4,0.295-4,3v11.068c0,2.705,1,4.932,4,4.932c0,13.521,12.023,29,26,29c13.977,0,26-15.479,26-29c3,0,4-2.227,4-4.932V45
						C92.953,42.295,88.953,42,88.953,42z"/>
					<path style="fill:#F2D6CE;" d="M62.953,17c-0.512,0-1.007,0.007-1.5,0.016c19.012,0.316,24.5,6.674,24.5,14.582V42v19
						c0,13.035-11.176,27.883-24.5,28.936C61.951,89.975,62.45,90,62.953,90c13.977,0,26-15.479,26-29V42V31.598
						C88.953,23.484,83.184,17,62.953,17z"/>
					<path style="fill:#805026;" d="M62.953,17c-20.229,0-26,6.484-26,14.598V42v11c0.926-4.631,3.57-17.83,9.516-22.141
						C51.199,32.211,56.864,33,62.953,33c6.089,0,11.754-0.789,16.484-2.141c5.944,4.311,8.59,17.51,9.516,22.141V42V31.598
						C88.953,23.484,83.184,17,62.953,17z"/>
					<path style="fill:#734822;" d="M62.953,17c-0.51,0-1.005,0.007-1.497,0.016c19.009,0.316,24.497,6.674,24.497,14.582v9.869
						c1.593,4.529,2.525,9.158,3,11.533V42V31.598C88.953,23.484,83.184,17,62.953,17z"/>
					<path style="fill:#805026;" d="M62.953,66.75c-5.963,0-10.797,2.742-10.797,6.125v1.74v2v10.275
						c3.318,1.95,6.983,3.108,10.797,3.108c3.814,0,7.479-1.158,10.797-3.108V76.615v-2v-1.74
						C73.75,69.492,68.916,66.75,62.953,66.75z"/>
					<g>
						<path style="fill:#CC9B8E;" d="M69.357,73.959c0.225,1.081-2.625,2.656-6.404,2.656s-6.629-1.575-6.405-2.656
							c0.224-1.082,3.074-1.344,6.405-1.344S69.135,72.877,69.357,73.959z"/>
					</g>
					<g>
						<g>
							<path style="fill:#335466;" d="M43.959,100.68c0.146,0.528-0.166,1.084-0.695,1.23l-17.457,4.872
								c-0.529,0.147-1.084-0.165-1.232-0.694l-0.813-2.911c-0.146-0.528,0.166-1.084,0.695-1.231l17.457-4.871
								c0.529-0.147,1.084,0.165,1.232,0.693L43.959,100.68z"/>
							<g>
								<circle style="fill:#FFD464;" cx="35.79" cy="101.39" r="1.001"/>
								<circle style="fill:#FFD464;" cx="39.65" cy="100.313" r="1"/>
								<circle style="fill:#FFD464;" cx="31.93" cy="102.466" r="1"/>
								<circle style="fill:#FFD464;" cx="28.071" cy="103.543" r="1.001"/>
							</g>
						</g>
						<g>
							<path style="fill:#335466;" d="M81.947,100.68c-0.146,0.528,0.166,1.084,0.695,1.23l17.457,4.872
								c0.528,0.147,1.084-0.165,1.231-0.694l0.813-2.911c0.146-0.528-0.166-1.084-0.695-1.231l-17.457-4.871
								c-0.529-0.147-1.084,0.165-1.232,0.693L81.947,100.68z"/>
							<g>
								<circle style="fill:#FFD464;" cx="90.116" cy="101.39" r="1.001"/>
								<circle style="fill:#FFD464;" cx="86.256" cy="100.313" r="1"/>
								<circle style="fill:#FFD464;" cx="93.977" cy="102.466" r="1"/>
								<circle style="fill:#FFD464;" cx="97.835" cy="103.543" r="1.001"/>
							</g>
						</g>
					</g>
					<polygon style="fill:#295166;" points="66.094,115.281 68.563,109.875 62.953,104 57.344,109.875 59.812,115.281 
						60.344,115.281 59.406,117.531 57.453,137.834 62.953,143.584 68.453,137.834 66.5,117.531 65.563,115.281 					"/>
					<path style="fill:#F5F5F5;" d="M32.156,117.781c0,4,1.281,11.969,7.344,14.031c6.063-2.063,7.344-10.031,7.344-14.031
						c-0.719-0.641-4.031-1.656-7.344-1.656S32.875,117.141,32.156,117.781z"/>
					<ellipse style="fill:#263740;" cx="62.953" cy="22.186" rx="31.773" ry="13.324"/>
					<path style="fill:#1E2C33;" d="M62.953,8.859c-0.672,0-1.338,0.013-2,0.029c16.615,0.434,29.773,6.219,29.773,13.297
						c0,7.076-13.158,12.86-29.773,13.295c0.662,0.018,1.328,0.028,2,0.028c17.548,0,31.773-5.965,31.773-13.323
						C94.727,14.826,80.501,8.859,62.953,8.859z"/>
					<ellipse style="fill:#242424;" cx="62.953" cy="35" rx="25.297" ry="10.583"/>
					<path style="fill:#1A1A1A;" d="M62.953,24.417c-0.504,0-1.004,0.008-1.5,0.021C74.727,24.762,85.25,29.365,85.25,35
						S74.727,45.238,61.453,45.563c0.496,0.014,0.996,0.021,1.5,0.021c13.972,0,25.297-4.736,25.297-10.583
						S76.925,24.417,62.953,24.417z"/>
					<path style="fill:#2179A6;" d="M89.535,28.367c0-3.108-11.901-4.605-26.582-4.605c-14.681,0-26.581,1.497-26.581,4.605v4.605
						c0,3.107,11.9,4.604,26.581,4.604c14.681,0,26.582-1.497,26.582-4.604V28.367z"/>
					<path style="fill:#1E7099;" d="M62.953,23.762c-0.674,0-1.339,0.006-2,0.012c13.745,0.131,24.582,1.629,24.582,4.595v4.604
						c0,2.967-10.837,4.463-24.582,4.594c0.661,0.008,1.326,0.013,2,0.013c14.681,0,26.582-1.497,26.582-4.604v-4.605
						C89.535,25.259,77.634,23.762,62.953,23.762z"/>
					<path style="fill:#F5F5F5;" d="M58.379,26.816c0,2.49,0.798,7.455,4.574,8.738c3.775-1.283,4.574-6.248,4.574-8.738
						c-0.447-0.399-2.512-1.032-4.574-1.032C60.89,25.784,58.826,26.417,58.379,26.816z"/>
					<polygon style="fill:#FFD464;" points="62.953,26.387 63.712,28.721 66.166,28.721 64.181,30.164 64.939,32.498 62.953,31.055 
						60.968,32.498 61.727,30.164 59.741,28.721 62.195,28.721 					"/>
				</g>
			</g>
		</g>
	</g>
	<g>
		<g>
			<ellipse style="fill:#F5F5F5;" cx="53" cy="50" rx="4" ry="3"/>
			<circle style="fill:#734822;" cx="53" cy="50" r="2"/>
		</g>
		<g>
			<ellipse style="fill:#F5F5F5;" cx="73" cy="50" rx="4" ry="3"/>
			<circle style="fill:#734822;" cx="73" cy="50" r="2"/>
		</g>
	</g>
</g>
</svg>
