<?xml version="1.0" encoding="iso-8859-1"?>
<!-- Generator: Adobe Illustrator 15.1.0, SVG Export Plug-In . SVG Version: 6.00 Build 0)  -->
<!DOCTYPE svg PUBLIC "-//W3C//DTD SVG 1.1//EN" "http://www.w3.org/Graphics/SVG/1.1/DTD/svg11.dtd">
<svg version="1.1" id="Layer_1" xmlns="http://www.w3.org/2000/svg" xmlns:xlink="http://www.w3.org/1999/xlink" x="0px" y="0px"
	 width="128px" height="128px" viewBox="0 0 128 128" style="enable-background:new 0 0 128 128;" xml:space="preserve">
<g>
	<circle style="fill:#4AB8A1;" cx="64" cy="64" r="64"/>
	<g>
		<g>
			<defs>
				<circle id="SVGID_1_" cx="64" cy="64" r="64"/>
			</defs>
			<clipPath id="SVGID_2_">
				<use xlink:href="#SVGID_1_"  style="overflow:visible;"/>
			</clipPath>
			<g style="clip-path:url(#SVGID_2_);">
				<path style="fill:#45998B;" d="M110.877,116c-4.578-23-38.912-20-46.924-20c-8.012,0-42.346-3-46.924,20
					c-4.578,23,18.313,31,18.313,31h28.611h28.611C92.564,147,115.455,139,110.877,116z"/>
				<polygon style="fill:#F5F5F5;" points="51,95 27,99 12,114 12,152 64,152 64,129.946 61.044,126 				"/>
				<polygon style="fill:#F5F5F5;" points="77,95 101,99 116,114 116,152 64,152 64,129.946 66.956,126 				"/>
				<path style="fill:#FFDC80;" d="M107.912,68.19C102.422,78.63,88.25,89.067,64,89.067S25.578,78.629,20.088,68.19
					c0,0,9.573-15.198,10.978-20.876C35.248,30.484,45.817,16,64,16c18.191,0,28.754,14.484,32.934,31.314
					C98.348,52.992,107.912,68.19,107.912,68.19z"/>
				<ellipse style="fill:#F5F5F5;" cx="63.953" cy="96.5" rx="14" ry="5.5"/>
				<path style="fill:#F2D6CE;" d="M76.371,93.563h0.005l-3.423-10.646l-9-0.666l-9,0.666L51.53,93.563h0.005
					c-0.051,0.146-0.082,0.295-0.082,0.443c0,2.206,5.597,3.993,12.5,3.993c6.902,0,12.5-1.787,12.5-3.993
					C76.453,93.857,76.422,93.709,76.371,93.563z"/>
				<path style="fill:#E6CBC3;" d="M76.371,93.563h0.005l-3.423-10.646l-9-0.666l-1.75,0.129l7.25,0.537l3.423,10.646h-0.005
					c0.051,0.146,0.082,0.295,0.082,0.443c0,2.016-4.678,3.677-10.75,3.95c0.573,0.025,1.154,0.043,1.75,0.043
					c6.902,0,12.5-1.787,12.5-3.993C76.453,93.857,76.422,93.709,76.371,93.563z"/>
				<path style="fill:#E6E6E6;" d="M41,109c2-1,10-4,10-4l-1,9l14,16c-5-8-12-35-12-38C47.463,94.583,41,100.333,41,109z"/>
				<path style="fill:#E6E6E6;" d="M87,109c-2-1-10-4-10-4l1,9l-14,16c5-8,12-35,12-38C80.537,94.583,87,100.333,87,109z"/>
				<path style="fill:#FFE1D9;" d="M64,30.707H42v27.494c0,15.184,9.849,27.494,22,27.494c12.15,0,22-12.312,22-27.494V30.707H64z"
					/>
				<path style="fill:#FFDC80;" d="M87.334,29.917C82.5,25.417,70.295,22.361,64,22.361c-39.167,0-22.979,36.184-22.979,36.184
					c0-24.352,37.727-12.52,37.727-25.895c0,2.517,8.169,4.933,8.169,10.933C89.277,41.223,92.168,34.417,87.334,29.917z"/>
				<path style="fill:#F2CD6D;" d="M96.934,47.314C92.754,30.484,82.191,16,64,16c-0.938,0-1.848,0.047-2.744,0.122
					c16.514,1.385,26.227,15.229,30.191,31.192c1.414,5.678,10.977,20.876,10.977,20.876c-4.156,7.903-13.331,15.769-28.054,19.134
					l0.323,1.009c17.797-2.548,28.592-11.345,33.219-20.143C107.912,68.19,98.348,52.992,96.934,47.314z"/>
				<path style="fill:#F5F5F5;" d="M64,14c-13,0-21,7-21,7l3,10c0,1.761,8.059,4,18,4c9.941,0,18-2.239,18-4l3-10C85,21,77,14,64,14
					z"/>
				<rect x="63" y="18" style="fill:#CC584C;" width="2" height="10"/>
				<rect x="59" y="22" style="fill:#CC584C;" width="10" height="2"/>
			</g>
		</g>
	</g>
	<g>
		<g>
			<ellipse style="fill:#F5F5F5;" cx="54" cy="51" rx="4" ry="3"/>
			<circle style="fill:#242424;" cx="54" cy="51" r="2"/>
		</g>
		<g>
			<ellipse style="fill:#F5F5F5;" cx="72" cy="51" rx="4" ry="3"/>
			<circle style="fill:#242424;" cx="72" cy="51" r="2"/>
		</g>
	</g>
</g>
</svg>
