<?xml version="1.0" encoding="iso-8859-1"?>
<!-- Generator: Adobe Illustrator 15.1.0, SVG Export Plug-In . SVG Version: 6.00 Build 0)  -->
<!DOCTYPE svg PUBLIC "-//W3C//DTD SVG 1.1//EN" "http://www.w3.org/Graphics/SVG/1.1/DTD/svg11.dtd">
<svg version="1.1" id="Layer_1" xmlns="http://www.w3.org/2000/svg" xmlns:xlink="http://www.w3.org/1999/xlink" x="0px" y="0px"
	 width="128px" height="128px" viewBox="0 0 128 128" style="enable-background:new 0 0 128 128;" xml:space="preserve">
<g>
	<circle style="fill:#B2E3FF;" cx="64" cy="64" r="64"/>
	<g>
		<g>
			<defs>
				<circle id="SVGID_1_" cx="64" cy="64" r="64"/>
			</defs>
			<clipPath id="SVGID_2_">
				<use xlink:href="#SVGID_1_"  style="overflow:visible;"/>
			</clipPath>
			<g style="clip-path:url(#SVGID_2_);">
				<polygon style="fill:#406A80;" points="116.227,118.834 104.727,98.334 64,92.334 23.274,98.334 11.774,118.834 10.774,133.834 
					64,133.834 117.227,133.834 				"/>
				<polygon style="fill:#395F73;" points="116.227,118.834 104.727,98.334 64,92.334 62,92.629 100.727,98.334 112.227,118.834 
					113.227,133.834 117.227,133.834 				"/>
				<g>
					<g>
						<path style="fill:#335466;" d="M44.991,97.381c0.072,0.544-0.314,1.051-0.858,1.123l-17.962,2.418
							c-0.544,0.073-1.051-0.313-1.125-0.857l-0.403-2.996c-0.072-0.543,0.314-1.049,0.858-1.123l17.962-2.418
							c0.544-0.072,1.051,0.313,1.125,0.857L44.991,97.381z"/>
						<g>
							<circle style="fill:#FFD464;" cx="36.802" cy="96.958" r="1.001"/>
							<circle style="fill:#FFD464;" cx="40.774" cy="96.423" r="1"/>
							<circle style="fill:#FFD464;" cx="32.83" cy="97.492" r="1"/>
							<circle style="fill:#FFD464;" cx="28.86" cy="98.026" r="1.001"/>
						</g>
					</g>
					<g>
						<path style="fill:#335466;" d="M83.009,97.381c-0.071,0.544,0.314,1.051,0.858,1.123l17.962,2.418
							c0.544,0.073,1.051-0.313,1.125-0.857l0.403-2.996c0.072-0.543-0.314-1.049-0.858-1.123l-17.962-2.418
							c-0.544-0.072-1.051,0.313-1.125,0.857L83.009,97.381z"/>
						<g>
							<circle style="fill:#FFD464;" cx="91.198" cy="96.958" r="1.001"/>
							<circle style="fill:#FFD464;" cx="87.227" cy="96.423" r="1"/>
							<circle style="fill:#FFD464;" cx="95.17" cy="97.492" r="1"/>
							<circle style="fill:#FFD464;" cx="99.141" cy="98.026" r="1.001"/>
						</g>
					</g>
				</g>
				<path style="fill:#E78244;" d="M101.301,69.904C96.639,78.771,84.6,87.639,64,87.639c-20.6,0-32.638-8.867-37.301-17.734
					c0,0,8.132-12.91,9.326-17.732C39.577,37.875,48.556,25.57,64.001,25.57c15.453,0,24.425,12.305,27.976,26.602
					C93.177,56.994,101.301,69.904,101.301,69.904z"/>
				<circle style="fill:#2179A6;" cx="43.316" cy="61.711" r="2.331"/>
				<path style="fill:#D97A40;" d="M91.977,52.172C88.425,37.875,79.454,25.57,64,25.57c-0.796,0-1.569,0.041-2.331,0.104
					c14.026,1.177,22.278,12.937,25.646,26.497c1.201,4.822,9.326,17.732,9.326,17.732c-4.482,8.525-15.804,17.023-34.972,17.671
					c0.772,0.026,1.533,0.063,2.331,0.063c20.6,0,32.639-8.867,37.301-17.734C101.301,69.904,93.177,56.994,91.977,52.172z"/>
				<circle style="fill:#2179A6;" cx="83.52" cy="61.711" r="2.331"/>
				<path style="fill:#FFD7CC;" d="M64,105.418c-2.38,0.038-7.987-12.466-7.987-12.466l-2.341-17.259h20.656l-2.282,16.839
					C72.046,92.532,66.449,105.377,64,105.418z"/>
				<path style="fill:#F2CCC2;" d="M71.328,75.693l-2.282,16.839c0,0-3.849,8.827-6.56,11.866c0.572,0.638,1.094,1.025,1.514,1.02
					c2.449-0.041,8.046-12.886,8.046-12.886l2.282-16.839H71.328z"/>
				<ellipse style="fill:#FFE1D9;" cx="64" cy="59.721" rx="19.52" ry="23.354"/>
				<path style="fill:#F2D6CE;" d="M64,36.365c-0.591,0-1.171,0.045-1.748,0.105c9.96,1.059,17.771,11.057,17.771,23.25
					c0,12.19-7.813,22.188-17.771,23.247c0.577,0.062,1.157,0.106,1.748,0.106c10.779,0,19.52-10.457,19.52-23.354
					C83.52,46.82,74.779,36.365,64,36.365z"/>
				<path style="fill:#E78244;" d="M76.527,39.715c0,11.362-32.046,1.313-32.046,21.996c0,0-1.894-30.734,19.519-30.734
					C73.326,30.977,76.527,39.715,76.527,39.715z"/>
				<polygon style="fill:#F5F5F5;" points="85.083,96.833 72.491,89.236 64,105.418 55.509,89.236 42.917,96.833 50.584,98.167 
					48.5,100.833 64,113.084 79.5,100.833 77.416,98.167 				"/>
				<g>
					<ellipse style="fill:#263740;" cx="64" cy="29.388" rx="31.773" ry="13.324"/>
					<path style="fill:#1E2C33;" d="M64,16.063c-0.672,0-1.338,0.013-2,0.028c16.615,0.435,29.773,6.22,29.773,13.298
						c0,7.076-13.158,12.86-29.773,13.295c0.662,0.018,1.328,0.028,2,0.028c17.548,0,31.773-5.965,31.773-13.323
						C95.773,22.029,81.548,16.063,64,16.063z"/>
					<ellipse style="fill:#242424;" cx="64" cy="42.202" rx="25.297" ry="10.583"/>
					<path style="fill:#1A1A1A;" d="M64,31.619c-0.504,0-1.004,0.008-1.5,0.021c13.271,0.323,23.797,4.928,23.797,10.563
						S75.773,52.441,62.5,52.766c0.496,0.014,0.996,0.021,1.5,0.021c13.973,0,25.297-4.737,25.297-10.583
						C89.297,36.357,77.973,31.619,64,31.619z"/>
					<path style="fill:#2179A6;" d="M90.582,35.568c0-3.107-11.9-4.604-26.582-4.604c-14.681,0-26.581,1.497-26.581,4.604v4.605
						c0,3.108,11.9,4.605,26.581,4.605c14.682,0,26.582-1.497,26.582-4.605V35.568z"/>
					<path style="fill:#1E7099;" d="M64,30.964c-0.674,0-1.339,0.005-2,0.013c13.745,0.131,24.582,1.627,24.582,4.594v4.604
						c0,2.966-10.837,4.464-24.582,4.595c0.661,0.006,1.326,0.012,2,0.012c14.682,0,26.582-1.497,26.582-4.605V35.57
						C90.582,32.461,78.682,30.964,64,30.964z"/>
					<path style="fill:#F5F5F5;" d="M59.426,34.02c0,2.49,0.798,7.455,4.574,8.738c3.775-1.283,4.574-6.248,4.574-8.738
						c-0.447-0.399-2.512-1.033-4.574-1.033C61.937,32.986,59.873,33.619,59.426,34.02z"/>
					<polygon style="fill:#FFD464;" points="64,33.589 64.759,35.923 67.213,35.923 65.229,37.366 65.986,39.7 64,38.257 
						62.015,39.7 62.773,37.366 60.788,35.923 63.242,35.923 					"/>
				</g>
				<path style="fill:#F5F5F5;" d="M33.642,111.688c0,4,1.281,11.97,7.344,14.031c6.063-2.063,7.344-10.031,7.344-14.031
					c-0.719-0.641-4.031-1.655-7.344-1.655S34.36,111.047,33.642,111.688z"/>
			</g>
		</g>
	</g>
	<g>
		<g>
			<ellipse style="fill:#F5F5F5;" cx="55" cy="58" rx="4" ry="3"/>
			<circle style="fill:#2179A6;" cx="55" cy="58" r="2"/>
		</g>
		<g>
			<ellipse style="fill:#F5F5F5;" cx="73" cy="58" rx="4" ry="3"/>
			<circle style="fill:#2179A6;" cx="73" cy="58" r="2"/>
		</g>
	</g>
</g>
</svg>
